<?xml version="1.0" standalone="no"?>
<!DOCTYPE svg PUBLIC "-//W3C//DTD SVG 20010904//EN"
 "http://www.w3.org/TR/2001/REC-SVG-20010904/DTD/svg10.dtd">
<svg version="1.0" xmlns="http://www.w3.org/2000/svg"
 width="1080.000000pt" height="720.000000pt" viewBox="0 0 1080.000000 720.000000"
 preserveAspectRatio="xMidYMid meet">
<metadata>
Created by potrace 1.16, written by Peter Selinger 2001-2019
</metadata>
<g transform="translate(0.000000,720.000000) scale(0.100000,-0.100000)"
fill="#000000" stroke="none">
<path d="M2793 7135 c-1 -36 -2 -75 -3 -87 -2 -13 3 -54 10 -93 6 -38 14 -81
16 -95 7 -49 23 -257 29 -395 3 -77 10 -205 15 -285 5 -80 12 -233 15 -340 3
-107 10 -262 15 -345 5 -82 12 -222 16 -310 4 -88 8 -167 10 -175 1 -8 3 -18
3 -21 1 -4 12 -10 25 -13 13 -3 30 -8 38 -11 11 -4 12 16 6 117 -4 68 -16 308
-28 533 -11 226 -27 529 -35 675 -7 146 -19 385 -26 532 -12 252 -13 266 -30
255 -26 -16 -32 -5 -31 63 1 55 -1 60 -21 60 -20 0 -22 -5 -24 -65z"/>
<path d="M1711 6941 c-15 -13 -45 -20 -99 -25 -59 -5 -83 -12 -95 -26 -10 -12
-24 -17 -41 -14 -13 2 -28 0 -31 -6 -3 -5 -15 -10 -26 -10 -28 0 -89 -48 -89
-70 0 -10 -7 -23 -15 -30 -20 -17 -37 -82 -42 -165 -10 -147 -4 -361 12 -440
19 -101 19 -100 -7 -75 -27 25 -41 26 -34 3 3 -10 8 -30 11 -45 16 -86 17 -87
30 -33 l12 50 2 -60 c3 -133 44 -332 77 -380 21 -30 17 -35 -28 -35 -38 -1
-41 -2 -25 -14 9 -7 17 -26 17 -44 0 -37 9 -62 21 -62 6 0 8 22 5 49 -4 46 3
61 29 61 6 0 65 -90 65 -99 0 -5 6 -14 14 -20 7 -6 16 -29 20 -50 4 -27 13
-41 31 -49 14 -6 25 -18 25 -26 0 -7 7 -16 15 -20 23 -8 18 -28 -5 -21 -16 5
-20 2 -20 -14 0 -26 -15 -27 -29 -3 -19 31 -11 -6 14 -73 13 -36 36 -80 50
-99 14 -18 25 -36 25 -40 0 -3 27 -39 59 -79 92 -113 231 -365 271 -492 7 -22
46 -121 87 -220 120 -290 169 -433 182 -540 l6 -50 45 -3 c24 -2 64 2 88 9
l43 12 -6 96 c-3 53 -10 179 -15 281 -10 205 -26 462 -39 615 -7 93 -11 105
-46 160 -21 33 -48 83 -61 110 -17 37 -23 44 -23 27 -1 -22 -195 -382 -206
-382 -2 0 -8 22 -14 48 -10 49 -71 168 -95 187 -7 6 -21 23 -31 39 -18 27 -18
29 -2 41 9 7 17 18 17 25 0 9 10 10 37 5 21 -4 42 -10 48 -13 15 -10 45 -10
45 0 0 5 4 7 9 4 5 -4 12 7 16 24 4 17 11 28 16 24 9 -5 14 22 11 57 -1 11 9
19 28 23 33 6 37 17 15 39 -11 12 -12 17 -2 20 7 3 5 6 -5 6 -25 1 -34 -2 -30
-13 5 -15 -18 -34 -36 -29 -24 6 -25 57 -2 103 11 21 24 41 29 44 5 4 12 20
16 36 4 17 13 30 21 30 8 0 14 9 14 20 0 11 6 20 14 20 8 0 16 7 20 15 3 8 0
15 -6 15 -6 0 -8 3 -4 8 4 4 12 7 18 7 6 0 12 15 14 33 2 18 8 38 14 45 18 22
87 161 105 215 11 30 25 52 33 52 10 0 12 4 4 13 -7 8 -7 32 0 72 5 33 7 70 3
82 -3 12 -1 25 5 28 6 4 10 -5 10 -20 0 -15 4 -24 10 -20 6 3 10 -2 10 -12 0
-14 5 -12 25 12 31 39 32 63 0 71 -13 3 -27 15 -30 25 -4 11 -11 17 -16 14
-19 -13 -8 45 14 65 21 20 22 27 21 193 -1 295 -2 314 -36 374 -17 30 -42 60
-57 68 -14 8 -42 28 -61 45 -38 33 -71 46 -96 36 -13 -5 -14 -3 -6 7 11 12 -3
28 -33 37 -5 2 -14 9 -20 16 -5 7 -34 20 -63 30 -29 9 -67 30 -84 46 -26 24
-39 29 -63 25 -17 -3 -42 1 -55 9 -33 18 -43 17 -69 -5z m-21 -287 c31 -13 53
-14 98 -8 31 4 71 7 87 6 86 -4 137 -12 148 -21 7 -5 24 -11 37 -13 52 -7 122
-67 159 -136 8 -15 10 -46 6 -93 -5 -58 -3 -78 13 -112 27 -57 56 -194 45
-210 -5 -6 -8 -47 -8 -89 0 -43 -3 -78 -7 -78 -5 0 -8 -15 -8 -33 0 -49 -17
-98 -42 -121 -18 -16 -21 -17 -15 -3 3 9 2 17 -3 17 -6 0 -10 -6 -10 -12 0 -9
-4 -8 -10 2 -5 8 -10 10 -10 5 0 -6 -16 -11 -35 -11 -19 0 -35 4 -35 8 0 4 -7
8 -16 8 -9 0 -27 11 -40 25 -13 14 -26 21 -29 15 -4 -7 -13 -7 -25 0 -10 5
-30 10 -44 10 -14 0 -37 5 -51 12 -21 10 -25 16 -20 39 5 23 2 30 -22 42 -34
18 -149 31 -157 18 -3 -5 1 -11 9 -15 17 -6 21 -26 5 -26 -5 0 -21 12 -35 27
-14 16 -25 22 -25 14 0 -8 -6 -11 -16 -7 -13 5 -15 1 -12 -19 3 -14 1 -25 -3
-25 -5 0 -9 20 -9 45 0 36 5 51 24 68 36 33 78 176 71 240 -7 57 -21 80 -50
85 -11 2 -66 3 -123 3 -78 0 -107 -4 -118 -16 -9 -8 -24 -20 -35 -25 -14 -8
-19 -22 -19 -55 0 -45 12 -60 24 -29 8 21 26 8 25 -19 0 -12 -3 -16 -6 -9 -7
18 -23 15 -23 -5 0 -15 -2 -16 -10 -3 -11 17 -13 6 -4 -28 5 -17 16 -24 48
-29 22 -3 35 -8 28 -11 -45 -15 38 -52 116 -52 51 0 60 -3 65 -20 3 -11 2 -20
-3 -20 -4 0 -10 -9 -13 -21 -3 -11 -19 -25 -36 -32 -17 -6 -31 -17 -31 -24 0
-7 -13 -19 -28 -27 -16 -8 -42 -31 -59 -51 -25 -29 -36 -35 -53 -30 -13 4 -19
12 -16 21 4 11 1 12 -13 5 -16 -9 -20 -1 -38 77 -17 75 -19 112 -16 252 3 91
4 194 4 230 -1 74 20 146 62 207 29 45 57 58 108 51 17 -3 56 1 87 8 32 6 60
12 64 13 4 1 26 -6 48 -15z"/>
<path d="M1920 6299 c-25 -3 -50 -4 -56 -2 -7 2 -15 0 -19 -6 -3 -6 -15 -11
-25 -11 -29 0 -33 -16 -20 -88 10 -54 19 -74 49 -106 38 -41 103 -75 136 -71
64 8 87 19 96 45 8 21 15 26 33 23 45 -9 61 10 60 67 -1 42 -7 57 -30 81 -16
16 -39 32 -51 35 -13 4 -23 10 -23 15 0 5 -18 9 -40 9 -25 0 -40 5 -40 13 0 9
-3 8 -9 -2 -5 -7 -10 -9 -12 -4 -2 4 -24 6 -49 2z"/>
<path d="M4210 6869 c0 -5 10 -9 23 -10 16 -1 13 -3 -11 -9 -36 -8 -72 -3 -72
11 0 16 -49 9 -60 -8 -8 -12 -13 -14 -16 -6 -3 7 -12 9 -20 6 -7 -3 -12 -9 -9
-13 3 -5 -5 -6 -17 -3 -14 3 -19 1 -11 -4 8 -5 -3 -14 -33 -27 -39 -16 -43
-20 -28 -31 16 -11 16 -14 1 -36 -10 -13 -17 -18 -17 -12 0 7 5 15 10 18 16
10 12 22 -8 27 -17 5 -19 0 -17 -38 3 -50 1 -53 -16 -23 -9 17 -8 20 2 14 9
-6 11 -3 6 9 -4 10 -7 22 -7 27 0 19 -64 -20 -118 -73 -12 -13 -20 -28 -18
-35 3 -7 0 -15 -6 -19 -7 -4 -8 -3 -4 4 4 7 5 12 2 12 -10 0 -56 -102 -50
-111 3 -5 0 -9 -6 -9 -7 0 -10 -7 -6 -15 3 -8 2 -15 -3 -15 -4 0 -8 -6 -9 -12
0 -7 -4 -29 -7 -48 -10 -54 -12 -309 -3 -323 5 -7 7 0 6 17 -2 16 2 31 10 33
7 3 12 -4 12 -19 0 -12 5 -30 10 -38 8 -13 12 -11 26 8 13 19 22 22 43 17 32
-8 52 -25 29 -25 -23 0 -38 -23 -42 -64 -2 -35 14 -50 29 -26 4 6 11 7 17 4 6
-4 30 -6 52 -6 l41 2 -29 -15 c-16 -8 -34 -14 -40 -13 -6 2 -11 -2 -11 -7 0
-6 5 -8 10 -7 6 2 36 4 68 5 47 0 62 5 82 25 14 14 25 28 25 33 0 16 -19 55
-37 74 -10 12 -19 27 -21 35 -5 23 -23 30 -82 31 -77 3 -92 1 -111 -17 -21
-19 -28 -9 -22 31 3 17 5 38 6 48 1 9 5 17 9 17 4 0 8 7 8 16 0 33 64 126 91
132 7 2 22 13 32 25 10 12 15 15 11 8 -5 -10 2 -8 22 5 35 24 151 76 179 80
11 1 31 3 45 3 20 1 22 3 10 11 -11 7 -4 11 28 16 37 6 42 9 37 28 -6 21 -6
21 9 2 9 -11 16 -15 16 -10 0 6 -5 15 -12 22 -19 19 3 14 25 -5 11 -10 17 -12
13 -5 -8 14 6 14 44 2 22 -7 23 -8 4 -9 -23 -1 -48 -24 -37 -34 10 -10 25 -8
18 2 -3 5 5 13 17 17 13 4 29 14 36 23 8 9 10 10 6 2 -5 -10 -3 -12 5 -7 7 5
10 15 7 23 -4 9 4 18 24 24 24 9 28 14 20 29 -10 18 -4 30 13 30 6 0 8 -3 4
-6 -3 -3 1 -23 8 -44 7 -21 11 -41 8 -44 -4 -3 -1 -6 5 -6 6 0 14 -9 17 -20 4
-11 10 -18 14 -16 4 3 7 -7 6 -21 -1 -25 -25 -47 -25 -23 0 6 6 8 13 4 6 -4 0
5 -15 20 -15 16 -26 32 -23 36 2 4 -2 16 -10 26 -15 18 -15 18 -9 -1 3 -11 11
-30 17 -43 9 -18 7 -26 -7 -40 -17 -16 -18 -16 -12 8 6 20 5 22 -4 8 -7 -12
-7 -25 2 -45 13 -32 11 -54 -5 -66 -8 -6 -5 -7 6 -3 10 3 21 6 23 6 3 0 3 4
-1 9 -3 5 0 13 6 17 8 4 9 3 5 -4 -4 -7 -3 -12 2 -12 9 0 8 -59 -2 -100 -3
-14 -1 -27 6 -31 7 -4 11 -24 10 -43 -2 -26 2 -36 12 -36 7 0 22 -12 31 -27
l18 -28 -28 25 -27 25 26 -39 c14 -21 27 -45 27 -52 2 -18 4 -24 17 -57 7 -16
12 -33 12 -38 0 -5 5 -9 11 -9 6 0 10 -10 9 -22 -3 -37 -1 -40 15 -24 8 8 15
23 15 33 1 16 3 15 20 -6 11 -13 20 -29 20 -37 0 -17 29 -7 54 19 15 15 17 28
12 63 -7 51 -2 55 18 17 l15 -28 1 42 c0 44 -23 80 -44 66 -10 -8 -18 -8 -51
-4 -5 0 5 14 22 30 30 27 31 32 29 92 -2 35 -8 76 -14 90 -6 14 -13 42 -16 61
-11 67 -54 183 -85 230 -17 25 -31 49 -31 53 0 10 -52 50 -65 50 -5 1 -9 6 -8
12 3 15 -33 27 -49 17 -7 -4 -10 -4 -6 0 7 9 -24 45 -34 39 -4 -2 -25 8 -47
22 -23 14 -49 25 -59 25 -10 0 -22 3 -25 7 -11 10 -57 13 -57 2z"/>
<path d="M5631 6803 c16 -32 31 -71 34 -88 3 -17 2 -23 -2 -15 -27 54 -58 76
-113 82 -30 2 -35 0 -38 -19 -2 -14 2 -23 10 -23 7 0 18 -10 24 -23 l10 -23
-106 1 c-77 0 -112 4 -124 14 -14 12 -29 13 -79 4 -34 -6 -64 -9 -66 -6 -4 3
12 17 51 44 13 9 -1 36 -18 36 -8 0 -29 -19 -47 -41 -17 -23 -35 -42 -39 -44
-5 -2 -8 -9 -8 -15 0 -8 4 -7 12 1 7 7 19 12 27 12 13 -1 12 -4 -3 -15 -38
-29 -49 -20 -44 35 5 44 3 48 -8 31 -29 -40 -37 -80 -39 -188 -1 -62 -6 -118
-12 -125 -6 -7 -11 -30 -10 -50 2 -58 16 -54 -216 -57 -65 0 -116 -5 -113 -9
3 -5 72 -7 153 -5 123 3 151 1 168 -12 15 -12 17 -18 7 -23 -9 -7 -9 -12 2
-27 11 -15 17 -17 28 -7 12 9 16 -2 26 -76 6 -48 15 -133 18 -189 l6 -102 37
-28 c20 -15 38 -30 41 -33 10 -13 168 -120 176 -120 5 0 40 20 77 45 38 25 71
45 74 45 3 0 32 19 64 42 59 41 60 42 54 82 -9 57 20 272 40 304 1 1 17 -4 34
-11 l33 -14 -2 -206 c0 -114 3 -207 7 -207 9 0 16 417 8 430 -8 12 -19 183
-17 245 6 154 -40 306 -116 378 l-29 28 28 -58z m-229 -231 c7 -48 38 -116 38
-83 0 10 10 12 38 7 20 -3 58 -9 84 -12 43 -6 49 -10 68 -47 16 -30 17 -37 6
-28 -9 8 -26 11 -40 7 -16 -4 -35 3 -62 22 -51 37 -75 46 -67 26 5 -12 -9 -14
-93 -8 -55 4 -104 11 -111 16 -8 6 -27 3 -56 -10 -39 -18 -97 -20 -97 -4 0 3
10 16 22 29 16 17 32 23 65 23 24 0 62 9 83 19 43 21 49 18 23 -11 -9 -10 -11
-18 -5 -18 16 0 39 38 52 88 16 63 42 54 52 -16z"/>
<path d="M8875 6778 c17 -12 50 -43 75 -69 39 -40 48 -58 64 -124 13 -55 16
-93 11 -132 -10 -79 -12 -83 -39 -70 -34 16 -46 57 -30 97 19 44 18 46 -14 62
-24 13 -31 12 -56 -3 -18 -11 -24 -19 -16 -24 6 -4 9 -13 6 -21 -4 -10 4 -14
27 -15 19 -1 24 -3 14 -6 -18 -5 -18 -6 2 -19 23 -17 28 -44 8 -44 -7 0 -18 5
-24 11 -17 17 -183 13 -211 -5 -6 -4 -16 -5 -21 -1 -12 7 -29 -24 -26 -47 4
-22 -34 -35 -46 -17 -5 8 -7 24 -4 35 3 16 -1 23 -16 27 -16 4 -19 2 -14 -11
5 -14 4 -15 -6 -4 -15 14 -33 16 -24 2 3 -5 -7 -9 -22 -8 -38 1 -94 -10 -175
-34 -54 -16 -68 -24 -68 -39 0 -11 -7 -22 -15 -25 -22 -9 -18 -24 5 -24 12 0
26 -12 35 -30 9 -17 27 -36 40 -42 27 -12 85 -89 85 -112 0 -9 5 -16 10 -16 6
0 10 5 10 10 0 13 37 13 46 -1 3 -6 15 -8 26 -6 21 6 80 -43 90 -73 6 -19 -51
-45 -65 -31 -13 13 -70 -16 -64 -32 2 -7 -5 -25 -18 -42 -23 -32 -38 -65 -29
-65 3 0 14 5 25 11 11 6 29 12 40 14 11 2 27 12 36 21 16 16 16 16 -5 10 -12
-4 -27 -4 -32 -1 -17 10 38 48 75 52 28 3 32 0 28 -15 -5 -20 12 -38 41 -43
20 -4 32 -50 12 -47 -16 2 -63 -19 -71 -31 -3 -6 -13 -11 -22 -11 -9 0 -25 -8
-36 -17 -17 -16 -20 -16 -30 -2 -7 9 -16 15 -22 13 -5 -1 -22 -5 -37 -8 l-28
-6 17 -43 c20 -51 60 -117 71 -117 21 0 2 -74 -23 -92 -14 -10 -55 30 -72 70
-15 36 -33 34 -33 -3 0 -35 23 -115 32 -115 4 0 8 -9 8 -19 0 -23 58 -41 70
-21 5 8 12 6 25 -7 18 -17 18 -18 -10 -21 -15 -2 -45 4 -66 14 -46 20 -69 8
-69 -37 0 -27 -3 -29 -40 -29 -41 0 -52 -12 -25 -28 21 -11 21 -65 2 -130 -14
-45 -35 -230 -31 -269 1 -7 -3 -13 -8 -13 -6 0 -8 -6 -5 -13 3 -8 1 -20 -3
-27 -17 -28 -8 175 12 254 10 43 18 86 16 94 -2 9 -23 -74 -47 -183 -35 -162
-106 -452 -137 -561 -5 -18 1 -22 68 -34 73 -14 188 -19 241 -12 23 4 28 9 24
24 -3 11 1 44 9 75 8 30 16 83 18 116 2 34 6 69 9 77 3 8 8 28 12 44 5 26 4
28 -9 17 -14 -12 -16 -10 -16 8 0 14 6 21 18 21 20 0 26 12 87 172 19 52 29
90 23 96 -5 5 -5 28 2 56 21 93 55 130 85 90 10 -14 16 -12 48 20 21 20 44 36
52 36 19 0 20 1 -11 -56 -101 -188 -190 -381 -180 -391 3 -3 6 0 6 9 0 8 19
44 42 79 23 35 57 95 76 134 18 38 37 72 42 75 4 3 16 23 26 45 11 23 36 51
58 65 48 31 161 176 186 239 10 27 28 68 39 92 26 57 44 160 31 173 -7 7 -10
3 -10 -11 0 -12 -5 -25 -10 -28 -16 -10 -23 21 -10 47 10 21 10 21 -3 5 -10
-12 -17 -14 -22 -8 -3 6 -2 11 3 11 20 0 22 34 3 66 -11 18 -23 49 -27 69 -5
28 -3 35 10 35 15 0 20 14 19 48 -1 6 4 12 10 12 6 0 7 3 4 7 -4 3 -2 12 4 19
5 6 18 41 27 76 15 52 16 69 6 98 -9 26 -9 39 0 49 9 11 12 7 16 -25 l6 -39
12 40 c6 22 12 53 12 68 0 24 -4 28 -22 25 -13 -2 -24 -11 -26 -23 -2 -11 -7
-24 -12 -28 -12 -13 1 46 14 62 8 11 8 13 -2 7 -7 -4 -26 -2 -42 6 -33 14 -41
33 -11 23 30 -9 43 26 42 114 -1 142 -55 258 -141 305 -57 31 -87 34 -45 4z
m-234 -485 c3 -42 11 -112 13 -129 8 -46 -84 -103 -119 -74 -8 7 -15 19 -15
27 0 12 -3 13 -14 4 -9 -8 -16 -8 -20 -2 -3 5 8 12 25 16 36 8 63 47 79 117 9
36 17 48 31 48 10 0 19 -3 20 -7z m-257 -1010 c11 -58 9 -89 -8 -125 -10 -21
-22 -38 -27 -38 -5 0 -8 -3 -7 -7 2 -12 -20 -60 -30 -67 -21 -13 -24 93 -3
132 6 11 12 41 15 67 3 45 16 65 43 65 6 0 14 -12 17 -27z"/>
<path d="M7258 6391 c-43 -10 -79 -16 -82 -13 -3 2 -30 -12 -60 -32 -55 -36
-182 -189 -171 -206 3 -4 -6 -27 -19 -51 -14 -24 -34 -77 -45 -118 -22 -78
-22 -109 0 -44 14 44 29 68 89 148 58 77 79 97 90 90 6 -4 14 4 19 17 6 13 10
20 10 16 1 -5 10 1 21 12 29 29 140 29 158 0 7 -12 17 -18 23 -14 6 3 17 -2
24 -12 8 -11 15 -14 15 -7 0 6 -4 15 -10 18 -20 12 -9 24 19 20 18 -2 35 2 42
11 10 12 14 12 21 2 6 -10 10 -10 17 1 7 10 9 4 8 -20 -2 -28 1 -33 17 -31 11
2 15 -1 11 -7 -3 -6 0 -11 7 -11 10 0 9 -3 -2 -9 -8 -6 -17 -8 -21 -5 -4 2
-10 0 -14 -6 -3 -5 -2 -10 4 -10 7 0 7 -10 0 -29 -6 -16 -11 -51 -12 -78 -2
-39 -6 -50 -24 -58 -12 -5 -24 -18 -27 -29 -4 -16 -7 -17 -21 -6 -13 11 -19
10 -36 -8 -11 -12 -24 -22 -29 -22 -6 0 -10 -6 -10 -14 0 -7 -6 -18 -13 -24
-7 -6 -14 -25 -15 -41 -2 -25 1 -31 18 -31 14 0 19 4 14 13 -5 9 -4 9 6 0 7
-6 9 -16 6 -22 -9 -15 -39 -14 -54 1 -20 20 -154 26 -160 8 -2 -6 -11 -10 -21
-10 -9 0 -22 -5 -28 -11 -9 -9 -10 -7 -6 10 6 22 -12 30 -20 9 -3 -9 -18 0
-43 24 -43 40 -104 56 -111 28 -4 -12 -3 -12 5 -2 7 11 15 8 36 -13 14 -14 26
-32 26 -40 0 -7 6 -16 13 -18 10 -4 10 -6 0 -6 -7 -1 -13 -8 -13 -17 0 -12 -6
-15 -25 -10 -14 4 -25 2 -25 -4 0 -5 -7 -10 -15 -10 -9 0 -20 -11 -25 -24 -5
-13 -15 -26 -22 -29 -10 -3 -9 -11 5 -35 9 -16 17 -43 17 -59 0 -39 31 -53
115 -53 58 0 65 3 87 29 12 15 28 36 34 46 13 24 38 9 41 -25 1 -14 4 -62 7
-107 7 -103 -5 -123 -84 -133 -54 -7 -121 8 -128 29 -2 6 6 25 18 41 12 17 21
33 19 35 -8 7 -109 -45 -109 -56 0 -6 -9 -9 -19 -6 -11 3 -22 -1 -25 -9 -3 -7
-12 -11 -20 -8 -11 4 -13 0 -9 -18 4 -18 3 -20 -6 -8 -10 13 -11 13 -11 0 0
-8 7 -36 14 -61 8 -26 17 -69 20 -95 3 -27 10 -65 16 -84 6 -19 14 -48 17 -65
3 -16 9 -34 13 -40 5 -5 10 -23 13 -40 2 -19 5 -11 6 23 0 28 6 52 11 52 6 0
10 5 10 11 0 5 -5 7 -12 3 -7 -4 -8 -3 -4 4 4 7 14 12 21 12 11 0 14 -13 12
-57 -2 -52 0 -56 21 -58 33 -2 51 -23 32 -35 -22 -14 -30 -12 -30 8 0 14 -2
15 -10 2 -5 -8 -10 -10 -10 -4 0 17 -30 12 -31 -5 0 -10 -2 -12 -6 -3 -3 9
-44 12 -154 12 -146 0 -149 0 -149 -21 0 -22 1 -22 155 -15 153 6 154 6 166
-16 22 -43 53 -69 96 -80 24 -6 41 -13 39 -16 -3 -3 2 -11 12 -18 13 -11 14
-15 4 -22 -7 -5 -14 -23 -17 -41 -2 -18 -7 -36 -11 -40 -4 -3 -4 2 -1 11 14
39 -15 23 -89 -50 -44 -42 -86 -88 -94 -101 -8 -13 -20 -29 -26 -35 -6 -7 -30
-48 -52 -91 -41 -80 -52 -126 -67 -280 -4 -38 -11 -79 -16 -92 -6 -17 -5 -23
5 -23 23 0 39 47 40 122 1 63 7 84 40 153 64 133 85 183 80 188 -3 3 1 20 9
39 11 26 23 37 55 46 37 11 92 60 105 94 4 10 7 10 16 -2 6 -8 11 -19 11 -25
0 -5 -5 -3 -10 5 -9 13 -10 13 -10 0 0 -8 4 -20 8 -26 11 -17 82 -53 118 -60
29 -5 33 -11 48 -64 9 -32 30 -83 46 -114 17 -31 31 -59 33 -63 1 -5 13 -7 27
-5 14 2 41 4 60 5 19 1 38 6 41 11 4 5 12 -1 18 -13 15 -27 68 -28 115 -2 92
52 269 111 333 111 16 0 34 5 41 12 9 9 12 9 12 0 0 -7 7 -12 16 -12 8 0 12 5
9 10 -5 8 19 14 45 12 3 0 6 12 5 28 0 15 -4 26 -8 23 -5 -3 -6 -11 -3 -18 8
-22 -4 -24 -47 -9 -30 11 -42 11 -48 3 -4 -7 -6 10 -5 38 1 38 5 49 18 50 9 1
18 -7 21 -18 6 -21 -8 -26 -17 -6 -3 6 -5 3 -3 -8 3 -30 32 -25 32 5 0 14 4
28 10 32 11 8 -22 48 -40 48 -6 0 -22 11 -35 25 -16 17 -20 28 -13 37 6 7 16
31 23 53 7 22 18 43 24 47 7 5 5 8 -6 8 -11 0 -15 5 -12 15 5 12 9 13 20 4 12
-10 13 -9 8 5 -3 9 -1 16 4 16 6 0 26 22 44 50 27 40 33 57 30 90 -2 22 -8 38
-12 35 -5 -3 -7 9 -5 27 10 77 11 128 3 128 -5 0 -7 4 -3 9 3 5 1 12 -4 16 -6
3 -8 12 -4 20 3 11 1 13 -10 10 -16 -7 -31 31 -16 41 11 6 2 63 -13 81 -6 7
-7 13 -2 13 4 0 3 5 -3 11 -7 7 4 36 36 97 l46 87 82 12 c45 6 96 19 112 29
29 17 30 19 16 41 -14 21 -14 23 0 23 9 0 13 -4 10 -10 -4 -6 6 -10 21 -10 27
0 27 1 8 14 -18 14 -18 15 -1 21 27 11 49 -12 35 -39 -11 -21 -11 -21 9 -1 14
14 17 22 9 28 -11 7 29 47 49 46 6 0 1 -6 -9 -14 -24 -18 -15 -29 14 -20 13 4
19 12 16 21 -4 9 -2 12 5 8 6 -4 15 0 20 7 14 23 10 31 -13 24 -21 -5 -21 -5
-5 5 16 10 18 20 12 63 -8 71 -67 225 -76 200 -4 -10 -5 -21 -3 -24 7 -13 -25
-18 -35 -6 -22 27 -52 129 -64 218 l-12 94 -129 3 -128 3 -42 33 c-57 46 -117
79 -211 116 -78 31 -92 32 -180 19 -5 -1 -37 1 -70 4 -41 4 -84 1 -137 -12z
m7 -1001 c4 -7 28 -8 66 -4 l59 7 0 -39 c0 -44 -20 -68 -63 -76 -20 -4 -35 3
-67 33 -22 20 -40 42 -40 48 0 6 -4 11 -10 11 -5 0 -10 5 -10 11 0 6 7 9 15 5
8 -3 15 -1 15 4 0 13 27 13 35 0z"/>
<path d="M4205 6218 c-22 -5 -47 -12 -55 -15 -8 -3 -27 -6 -42 -6 -30 0 -37
-11 -13 -21 17 -6 21 -36 4 -36 -7 0 -10 -18 -7 -49 2 -28 -1 -47 -6 -43 -5 3
-6 -2 -3 -12 4 -10 7 -21 7 -26 0 -16 31 -40 51 -40 11 0 19 7 19 18 0 9 5 24
11 32 9 13 10 12 5 -3 -5 -15 -2 -16 14 -7 25 13 51 14 30 0 -22 -14 -3 -12
21 3 17 10 23 10 26 0 6 -15 33 -17 33 -3 0 6 9 10 21 10 11 0 17 5 14 10 -3
6 -1 10 4 10 6 0 11 4 11 10 0 6 -10 5 -25 -2 -14 -6 -28 -8 -32 -5 -14 15 12
21 85 20 42 0 69 1 60 4 -10 2 -15 10 -11 19 3 8 0 14 -6 14 -6 0 -11 7 -11
16 0 8 -5 12 -11 8 -6 -3 -15 -1 -19 5 -7 12 -44 22 -82 22 -30 0 -30 17 0 38
19 13 33 17 43 10 17 -11 29 -12 29 -1 0 10 -74 32 -102 31 -13 -1 -41 -5 -63
-11z"/>
<path d="M602 5966 c-12 -32 -10 -189 3 -286 2 -19 7 -82 10 -140 3 -58 8
-116 10 -130 4 -27 17 -185 17 -210 0 -22 19 -214 21 -217 2 -1 18 3 38 10
l34 12 -27 300 c-31 344 -65 655 -74 679 -9 25 -19 19 -32 -18z"/>
<path d="M4180 5902 c0 -5 7 -15 15 -22 8 -7 15 -20 15 -30 0 -14 -8 -18 -37
-18 -53 0 -94 -7 -120 -21 -18 -9 -27 -9 -43 1 -17 11 -22 10 -30 -2 -15 -23
-12 -29 12 -22 13 3 19 1 15 -5 -5 -7 1 -9 15 -5 16 4 19 2 13 -8 -6 -10 -4
-12 9 -7 13 5 17 3 13 -7 -6 -16 20 -26 71 -26 23 0 31 4 26 12 -4 7 -3 8 5 4
6 -4 14 0 17 8 3 9 10 13 16 10 5 -3 4 -11 -2 -19 -7 -8 -9 -18 -6 -23 3 -6
-7 -12 -22 -15 -15 -3 -42 -10 -60 -15 -30 -10 -34 -9 -42 11 -6 15 -9 17 -9
6 -1 -21 -85 -36 -106 -19 -10 8 -16 7 -24 -7 -7 -14 -12 -15 -22 -6 -9 9 -8
15 4 27 9 9 20 16 26 16 6 0 8 7 5 15 -4 9 0 15 10 15 9 0 16 4 16 10 0 5 -6
8 -12 6 -7 -1 -10 -1 -5 1 4 3 7 11 7 19 0 8 4 14 8 14 4 0 8 16 8 35 0 34 0
34 -20 17 -29 -24 -81 -83 -82 -93 -1 -5 -2 -15 -3 -21 -2 -7 -6 -4 -11 7 -8
19 -9 19 -9 -2 -1 -13 4 -23 9 -23 6 0 10 -8 11 -17 0 -16 2 -15 10 2 8 17 9
16 6 -7 -2 -15 0 -25 4 -22 5 3 9 -2 9 -11 0 -9 4 -14 9 -11 13 9 21 -47 8
-62 -8 -10 -7 -12 4 -10 9 2 13 -4 11 -17 -2 -18 -1 -17 17 4 10 14 17 30 14
37 -2 6 3 14 13 18 11 4 15 2 11 -8 -4 -10 -1 -13 9 -9 7 3 14 0 14 -6 0 -6 9
-11 20 -11 11 0 20 -4 20 -10 0 -5 7 -10 16 -10 8 0 12 -5 9 -10 -4 -6 -1 -18
6 -26 10 -12 14 -12 21 -2 6 9 10 10 16 2 11 -16 82 -5 82 13 0 11 8 14 30 11
25 -4 30 -1 35 23 8 34 54 82 72 75 7 -3 13 -1 13 3 0 5 -6 12 -12 14 -8 3 -6
6 5 6 20 1 20 2 7 35 -14 38 -2 32 15 -6 14 -32 14 -32 15 -7 0 37 10 41 32
16 l19 -22 -6 22 c-3 12 -2 24 4 27 6 4 5 19 -1 40 -10 32 -14 34 -47 31 -33
-3 -111 28 -119 48 -2 4 -9 7 -16 7 -7 0 -22 9 -34 20 -12 12 -22 17 -22 12z"/>
<path d="M5243 5653 c-96 -60 -107 -68 -99 -81 4 -7 18 -12 32 -12 15 0 40
-15 65 -39 l41 -39 -23 -16 c-15 -10 -18 -16 -9 -16 13 0 13 -2 0 -10 -13 -8
-12 -10 3 -10 13 0 15 -4 9 -17 -79 -161 -80 -163 -58 -252 8 -31 18 -96 21
-144 l7 -88 52 -38 c60 -45 110 -106 100 -123 -4 -6 -3 -8 4 -4 5 3 13 0 15
-6 3 -7 6 4 6 24 1 20 14 72 30 115 28 76 29 85 29 266 1 124 -3 189 -10 193
-7 5 -8 2 -3 -5 5 -9 2 -12 -11 -9 -11 2 -19 12 -19 23 0 15 6 19 23 17 20 -3
21 -1 10 22 -12 28 -38 35 -38 12 0 -8 -5 -18 -12 -22 -8 -5 -9 -2 -5 9 3 10
2 17 -2 17 -5 0 -12 -6 -14 -12 -3 -8 -6 -6 -6 5 -1 10 6 17 18 17 13 0 21 8
23 23 2 12 9 21 17 19 21 -4 39 17 34 38 -6 24 -26 26 -46 5 -8 -8 -18 -11
-21 -7 -4 3 -4 -1 0 -11 3 -9 2 -17 -4 -17 -12 0 -24 29 -17 40 3 5 12 7 20 3
10 -3 15 1 15 14 0 26 67 53 116 47 56 -7 80 2 106 39 l22 32 -34 -26 c-30
-22 -41 -24 -73 -17 -21 4 -57 17 -80 29 -61 30 -118 49 -148 49 -14 0 -53
-17 -86 -37z"/>
<path d="M4340 5635 c-7 -8 -16 -13 -20 -10 -5 3 -10 -5 -12 -17 -2 -16 -9
-22 -20 -20 -25 4 -22 -10 4 -27 19 -12 23 -11 39 10 14 18 19 20 19 8 0 -26
-30 -79 -46 -79 -8 0 -14 -4 -14 -10 0 -10 -64 -42 -108 -55 -12 -4 -20 -10
-18 -14 3 -4 -14 -5 -38 -1 -46 7 -88 -1 -68 -14 6 -3 9 -13 6 -20 -3 -7 9
-28 25 -45 17 -18 28 -38 25 -43 -5 -7 5 -9 25 -6 20 3 31 0 31 -7 0 -7 17
-15 38 -18 49 -8 87 -34 73 -51 -6 -7 -8 -16 -4 -19 3 -4 2 -7 -3 -7 -13 0
-36 16 -35 24 1 3 -2 5 -6 4 -5 -2 -7 -7 -5 -12 2 -5 -5 -6 -14 -2 -13 5 -15
2 -11 -14 4 -18 3 -19 -9 -9 -8 6 -18 8 -22 4 -4 -4 -1 -10 6 -12 14 -5 17
-33 3 -33 -6 0 -13 5 -16 10 -9 15 -25 2 -25 -21 0 -10 6 -19 14 -19 8 0 16
-4 18 -9 3 -9 100 -16 149 -12 17 1 59 34 59 45 0 4 -4 5 -9 2 -5 -3 -8 6 -8
19 0 30 10 38 56 42 20 2 37 6 39 8 2 1 -3 22 -11 45 -14 43 -12 90 5 90 6 0
8 7 4 15 -3 8 -1 15 4 15 6 0 10 6 10 13 0 23 25 67 38 67 15 0 16 17 2 22
-13 4 -16 35 -6 66 5 13 3 22 -3 22 -6 0 -11 -4 -11 -10 0 -5 -5 -10 -11 -10
-6 0 -2 16 10 36 25 42 25 44 6 44 -8 0 -15 5 -15 11 0 8 -4 8 -15 -1 -8 -6
-31 -13 -51 -15 -29 -3 -37 0 -41 16 -6 23 -16 24 -33 4z"/>
<path d="M4578 5563 c-4 -19 4 -90 22 -192 16 -91 68 -189 93 -174 5 3 7 1 3
-5 -3 -6 -2 -13 3 -16 15 -10 19 42 5 93 -7 27 -14 62 -16 77 -1 16 -9 35 -16
42 -7 8 -9 18 -6 23 3 6 0 18 -8 27 -17 21 -69 119 -68 128 1 3 -1 8 -3 11 -3
2 -7 -4 -9 -14z"/>
<path d="M1299 5281 c-66 -67 -73 -139 -30 -301 12 -41 21 -85 21 -98 0 -24
-55 -83 -73 -79 -6 1 -21 -17 -34 -40 -42 -74 -27 -219 28 -277 18 -19 18 -19
12 4 -5 20 -3 22 15 18 18 -5 22 -2 22 19 0 15 -11 49 -25 78 -33 70 -26 110
29 163 36 35 97 69 83 46 -3 -5 6 -10 20 -11 19 -1 22 1 12 8 -23 14 37 11 74
-5 48 -20 92 -76 117 -150 14 -44 30 -72 46 -83 14 -9 27 -13 30 -10 17 17
-39 185 -68 203 -6 4 -4 -3 5 -17 9 -13 17 -28 17 -34 -1 -15 -34 48 -35 65 0
23 -89 77 -149 91 -61 13 -65 18 -96 131 -21 76 -23 215 -4 239 9 12 28 81 21
78 -1 -1 -18 -18 -38 -38z"/>
<path d="M2358 5223 c6 -10 40 -51 75 -91 51 -57 75 -95 112 -180 81 -184 163
-453 150 -493 -4 -11 1 -41 9 -67 9 -26 13 -59 11 -74 -6 -33 -1 -35 28 -8 14
14 30 19 44 15 18 -4 23 -1 23 15 0 11 -4 20 -10 20 -13 0 -31 45 -64 168 -16
56 -32 102 -36 102 -5 0 -6 10 -3 23 3 15 2 18 -4 9 -12 -16 -46 89 -36 113 5
14 3 16 -7 10 -10 -6 -12 -4 -7 8 3 10 2 17 -4 17 -5 0 -9 6 -7 13 8 33 -105
260 -156 316 -49 53 -133 113 -118 84z"/>
<path d="M3865 5195 c-16 -8 -27 -14 -23 -15 4 0 3 -13 -2 -29 -4 -17 -5 -31
-1 -33 4 -2 17 -52 30 -113 30 -146 117 -474 147 -554 22 -57 22 -63 6 -59
-12 4 -17 -2 -18 -19 -2 -22 -1 -23 12 -6 11 15 12 13 1 -16 -7 -20 -13 -27
-15 -17 -4 21 -26 20 -47 -1 -16 -15 -15 -18 19 -38 20 -12 34 -24 31 -26 -2
-3 4 -5 15 -6 24 -2 101 86 212 242 47 66 119 161 160 212 112 140 146 188
122 178 -59 -24 -146 -37 -239 -33 -91 3 -107 7 -176 40 -100 49 -148 101
-178 195 -18 56 -21 75 -12 92 14 25 2 27 -44 6z"/>
<path d="M3504 5037 c-12 -12 -32 -29 -45 -38 -41 -28 -130 -223 -114 -249 4
-6 9 -30 12 -53 2 -23 9 -43 14 -45 5 -2 9 -8 9 -13 0 -6 -4 -7 -10 -4 -5 3
-10 2 -10 -4 0 -5 4 -12 9 -15 4 -3 7 -52 6 -108 -2 -119 0 -126 31 -139 30
-11 32 -33 3 -26 -11 3 -28 3 -36 0 -21 -8 -63 -101 -63 -140 0 -23 -5 -33
-16 -33 -9 0 -12 -5 -8 -12 4 -7 3 -8 -4 -4 -14 8 -15 266 -3 546 6 151 -1
272 -15 257 -2 -2 -6 -87 -8 -188 -3 -133 -8 -198 -20 -233 -17 -52 -20 -246
-4 -246 4 0 6 -16 4 -35 -3 -19 0 -35 5 -35 5 0 9 -4 9 -10 0 -5 -8 -10 -17
-10 -15 -1 -16 -2 -3 -9 12 -7 14 -27 12 -95 -2 -48 -7 -84 -12 -81 -5 3 -12
0 -15 -6 -4 -6 -15 6 -26 30 -20 45 -32 53 -28 19 2 -13 0 -29 -5 -36 -5 -9
-1 -18 11 -27 10 -7 45 -65 77 -129 32 -64 62 -114 67 -111 4 3 6 12 2 20 -7
21 16 48 31 36 8 -6 11 -1 12 17 1 15 -1 21 -3 15 -3 -7 -10 -13 -16 -13 -5 0
-7 3 -4 6 4 4 -2 19 -13 33 -17 25 -17 32 -5 91 16 76 19 85 53 168 30 73 43
76 16 3 -18 -53 -14 -75 11 -50 28 29 71 440 43 423 -8 -5 -9 8 -3 47 4 30 9
124 11 209 l4 155 45 38 c34 29 44 44 40 58 -4 13 -1 21 10 25 13 6 14 8 3 15
-18 12 -20 11 -44 -14z"/>
<path d="M3578 4993 c-13 -16 -30 -41 -36 -58 -11 -31 -38 -204 -47 -307 -2
-31 -5 -60 -6 -65 -3 -20 3 -57 8 -43 2 8 8 24 13 35 13 29 52 235 52 270 0
17 2 37 5 45 3 8 6 31 8 51 2 20 10 51 19 68 20 38 17 39 -16 4z"/>
<path d="M4852 4802 c-13 -166 -16 -461 -5 -525 l6 -39 29 58 c26 53 28 66 24
139 -2 44 -5 93 -5 108 -1 16 -4 26 -8 24 -5 -3 -8 32 -8 76 0 85 -13 308 -18
313 -2 2 -8 -67 -15 -154z"/>
<path d="M9811 4858 c1 -7 -3 -26 -9 -41 -7 -16 -22 -81 -33 -145 -12 -64 -23
-121 -26 -126 -3 -4 -9 -40 -13 -78 -4 -39 -12 -73 -16 -77 -5 -3 -9 -28 -10
-56 -2 -76 -26 -255 -34 -255 -8 0 -25 -67 -21 -87 1 -7 -8 -13 -20 -13 -15 0
-19 -4 -15 -16 8 -20 -14 -74 -30 -74 -7 0 -13 29 -16 74 -3 45 -11 82 -21 97
-10 13 -17 32 -17 43 0 19 -1 19 -16 4 -9 -8 -16 -26 -15 -39 0 -13 0 -63 0
-111 0 -48 3 -93 8 -100 9 -15 7 -10 27 -113 8 -44 31 -125 51 -180 46 -124
65 -191 65 -232 0 -17 6 -38 14 -45 23 -23 29 -183 16 -386 -12 -170 -15 -192
-41 -246 l-28 -58 26 23 c23 22 25 22 18 4 -4 -11 -9 -36 -11 -56 -6 -60 -31
-161 -53 -214 -11 -27 -23 -76 -26 -108 -5 -41 -11 -60 -23 -65 -22 -8 -72
-61 -72 -76 0 -6 14 4 30 22 16 17 36 32 44 32 8 0 17 8 20 17 29 73 14 -202
-18 -337 -18 -76 -35 -163 -46 -238 -13 -82 -28 -98 -107 -112 -288 -50 -402
-37 -780 86 l-265 87 6 46 c3 25 10 98 15 161 6 63 24 180 40 260 16 80 45
222 65 315 19 94 42 200 51 238 8 37 24 120 35 185 12 64 32 162 45 217 52
211 64 273 70 362 4 51 13 97 19 102 10 8 135 22 241 26 22 1 52 -4 67 -11 36
-18 35 -18 52 14 18 36 11 76 -13 66 -9 -3 -25 -9 -36 -12 -11 -2 -25 -9 -32
-14 -7 -6 -19 -6 -30 0 -11 6 -66 7 -143 2 -69 -5 -163 -9 -210 -11 -79 -2
-171 -13 -328 -40 -35 -7 -65 -10 -67 -8 -8 8 30 149 40 149 11 0 3 260 -10
279 -4 7 -8 22 -9 34 -2 12 -6 33 -11 46 -4 15 -4 21 3 17 16 -10 70 5 76 21
4 11 1 13 -14 8 -16 -5 -19 -3 -13 11 4 12 3 15 -5 10 -7 -4 -12 -2 -12 3 0 6
4 11 8 11 4 0 6 15 4 34 -3 26 -10 36 -28 40 -16 4 -24 14 -24 27 0 15 -5 19
-19 14 -32 -10 -53 5 -48 34 5 24 4 25 -9 6 -17 -22 -18 -32 -4 -40 6 -4 7
-12 4 -18 -4 -7 -4 -9 1 -5 4 4 23 -20 41 -55 38 -71 45 -106 14 -68 -20 23
-20 23 -20 2 0 -14 -6 -21 -20 -21 -11 0 -27 -8 -36 -19 -16 -18 -54 -18 -54
1 0 5 -5 6 -10 3 -6 -4 -8 -9 -6 -13 2 -4 -41 -3 -96 2 -113 10 -161 2 -256
-44 -31 -15 -73 -31 -92 -35 l-35 -8 30 -9 c37 -11 104 -2 125 17 21 19 100
32 100 16 0 -6 -4 -11 -10 -11 -5 0 -10 -6 -10 -14 0 -7 -21 -31 -47 -52 -93
-77 -173 -162 -173 -186 1 -20 2 -21 13 -8 7 9 28 24 47 33 19 10 49 26 65 37
17 10 38 19 47 19 9 1 18 4 20 9 3 7 150 82 161 82 17 0 -10 -38 -36 -50 -18
-8 -31 -18 -29 -23 3 -10 -47 -57 -61 -57 -6 0 -18 -6 -26 -13 -9 -8 -36 -21
-61 -30 -125 -43 -146 -51 -162 -58 -10 -5 -23 -9 -30 -9 -6 0 -52 -31 -102
-69 -50 -38 -104 -77 -121 -87 -16 -10 -34 -24 -38 -31 -4 -7 -14 -13 -20 -13
-12 0 -47 -34 -47 -45 0 -5 -25 -37 -47 -60 -10 -10 -7 -13 12 -11 14 0 25 4
25 9 0 4 12 7 28 7 57 0 72 4 72 21 0 11 12 19 37 24 21 4 40 10 43 14 3 4 35
20 73 36 37 15 67 34 67 40 0 7 7 15 15 19 8 3 39 23 68 44 52 38 112 62 158
62 22 0 21 -2 -10 -21 -21 -13 -30 -23 -23 -28 29 -18 -20 -79 -113 -139 -22
-15 -50 -36 -62 -48 -13 -12 -51 -36 -85 -54 -35 -18 -77 -43 -95 -56 -17 -13
-36 -24 -42 -24 -6 0 -11 -4 -11 -10 0 -14 26 -12 58 3 15 8 55 20 89 27 36 7
85 27 114 46 88 56 155 58 89 2 -85 -72 -214 -165 -241 -173 -10 -4 -19 -11
-19 -16 0 -5 -5 -9 -11 -9 -24 0 -210 -132 -224 -160 -17 -33 -17 -34 19 -20
21 8 26 6 26 -6 0 -12 5 -10 22 6 12 11 30 20 39 20 10 0 21 4 24 10 3 6 29
10 57 10 47 0 152 24 173 40 6 4 29 10 53 13 46 6 139 48 219 100 56 36 114
67 125 67 29 0 -15 -58 -83 -110 -18 -14 -37 -30 -43 -35 -6 -6 -45 -33 -86
-60 -41 -28 -77 -53 -80 -56 -9 -11 -55 -33 -63 -31 -5 1 -27 -14 -50 -33 -27
-24 -49 -34 -61 -31 -11 3 -28 0 -39 -6 -20 -10 -20 -11 -1 -21 10 -7 23 -12
28 -12 5 0 14 -8 20 -19 8 -14 8 -20 -1 -23 -7 -3 -13 -13 -13 -24 0 -10 -5
-19 -12 -19 -6 0 -9 -3 -5 -6 3 -4 25 13 49 36 23 24 43 39 45 33 6 -18 -38
-103 -53 -103 -9 0 -12 5 -8 12 4 6 3 8 -3 5 -9 -6 -50 8 -138 44 -16 7 -34
13 -40 14 -5 2 -53 19 -105 38 -112 42 -316 107 -336 107 -8 0 -14 1 -14 3 0
1 24 56 54 122 47 107 109 221 126 235 4 3 23 30 44 62 20 31 55 72 78 92 22
20 49 53 59 73 11 21 44 64 74 96 56 60 95 110 95 122 0 4 -16 -3 -36 -15 -19
-12 -38 -20 -41 -17 -7 8 54 112 90 153 16 19 24 34 17 34 -6 0 16 28 50 63
81 80 118 137 89 137 -15 0 -124 -113 -153 -158 -13 -21 -33 -46 -45 -56 -11
-11 -21 -24 -21 -29 0 -6 13 2 30 18 55 52 40 20 -20 -45 -33 -35 -62 -61 -66
-57 -4 3 12 40 36 80 41 72 126 167 283 316 37 36 67 68 67 73 0 9 74 48 92
48 8 0 38 16 68 35 30 19 50 35 45 35 -6 0 -3 5 5 10 13 9 13 10 -1 10 -8 0
-20 -5 -25 -10 -6 -6 -37 -12 -70 -14 -67 -4 -104 -16 -123 -40 -7 -9 -19 -16
-26 -16 -17 0 -235 -206 -235 -222 0 -4 -23 -30 -51 -59 -50 -51 -89 -108 -89
-132 0 -7 -14 -25 -30 -41 -17 -16 -30 -35 -30 -43 0 -7 -4 -13 -10 -13 -5 0
-10 -5 -10 -11 0 -6 -7 -17 -15 -25 -8 -9 -15 -24 -15 -34 0 -10 -4 -22 -10
-25 -5 -3 -26 -38 -45 -78 -20 -40 -49 -90 -65 -112 -17 -22 -37 -54 -44 -71
-8 -17 -19 -35 -25 -38 -5 -4 -8 -13 -4 -21 3 -8 0 -15 -6 -15 -6 0 -11 -7
-11 -16 0 -9 -5 -12 -12 -8 -7 4 -8 3 -4 -4 7 -12 -21 -82 -33 -82 -4 0 -5 18
-3 40 4 38 -8 54 -23 29 -4 -5 -12 -8 -18 -6 -7 2 -20 -7 -30 -19 -10 -13 -30
-29 -45 -36 -15 -8 -27 -22 -27 -32 0 -24 -24 -33 -36 -15 -7 11 -9 11 -9 -2
0 -20 -67 -34 -87 -17 -13 11 -17 5 -14 -24 2 -11 -5 -18 -14 -18 -9 0 -13 -4
-10 -10 9 -15 -8 -12 -33 6 -35 24 -26 -1 15 -41 35 -34 35 -35 12 -37 -13 0
-37 0 -53 1 -17 2 -26 -1 -22 -7 3 -6 -2 -18 -11 -28 -13 -12 -14 -19 -5 -22
14 -4 16 -22 2 -22 -5 0 -17 15 -26 33 -24 46 -73 87 -105 87 -30 0 -47 15
-27 24 7 4 -9 4 -35 1 -29 -3 -46 -1 -42 5 3 5 -10 25 -29 44 -19 18 -34 35
-33 37 1 3 -4 -3 -12 -11 -11 -13 -12 -12 -7 7 9 30 -3 75 -19 69 -13 -5 -35
12 -35 26 0 4 7 8 15 8 8 0 15 6 15 14 0 8 -8 13 -17 12 -13 -1 -17 5 -15 23
3 16 -1 22 -10 19 -7 -3 -12 -15 -11 -26 2 -18 -2 -21 -22 -20 -16 2 -24 7
-21 15 3 7 -1 10 -10 6 -7 -3 -14 -11 -14 -19 0 -18 -4 -18 -42 2 -26 13 -29
20 -24 45 4 22 2 29 -9 29 -8 0 -16 3 -16 8 -1 4 -3 21 -5 37 -5 47 -12 88
-19 111 -4 12 -1 27 7 35 7 8 14 28 15 44 4 56 8 75 15 75 4 0 4 7 1 17 -4 11
-3 14 5 9 16 -10 15 7 0 23 -11 10 -10 12 2 9 11 -2 15 6 15 35 0 25 4 36 12
33 7 -3 10 1 6 10 -3 7 -1 14 5 14 5 0 8 18 6 40 -2 37 3 45 29 41 5 -1 5 3 2
9 -13 22 -48 -16 -64 -69 -9 -29 -19 -49 -23 -45 -5 4 -8 0 -8 -9 0 -10 -8
-17 -20 -17 -14 0 -20 -7 -20 -21 0 -16 -4 -20 -17 -15 -15 5 -14 3 2 -10 11
-9 14 -14 6 -12 -8 2 -19 12 -25 21 -12 19 -16 13 69 122 33 42 68 91 77 109
19 37 14 76 -9 76 -8 0 -30 15 -48 34 -18 19 -36 32 -39 29 -3 -4 -6 1 -6 10
0 11 -8 17 -22 17 -17 0 -19 3 -9 9 10 6 5 11 -18 16 -18 4 -35 4 -38 1 -4 -3
3 -6 15 -6 17 0 22 -6 22 -25 0 -16 6 -25 15 -25 8 0 15 -5 15 -11 0 -5 5 -7
10 -4 6 3 10 1 10 -5 0 -6 5 -8 10 -5 6 3 10 1 10 -5 0 -6 3 -9 8 -7 4 3 13
-1 20 -9 11 -12 8 -14 -16 -14 -15 0 -37 7 -48 15 -10 8 -27 15 -36 15 -10 0
-18 4 -18 10 0 5 -3 9 -7 9 -18 -3 -73 14 -73 23 0 5 -4 6 -10 3 -5 -3 -10 -1
-10 4 0 6 -6 11 -14 11 -8 0 -16 3 -18 8 -1 4 -22 22 -46 41 l-43 33 13 -28
c7 -16 21 -36 30 -45 25 -23 22 -39 -7 -39 -17 0 -25 6 -25 18 0 13 -2 14 -9
3 -7 -11 -9 -11 -14 0 -3 8 -8 0 -12 -18 -4 -18 -13 -33 -19 -33 -7 0 -7 -3 1
-8 12 -8 37 -111 29 -119 -7 -7 -36 9 -30 18 3 5 -2 9 -10 9 -9 0 -16 5 -16
11 0 5 4 8 8 5 4 -2 14 -1 22 5 13 7 12 9 -2 9 -21 0 -25 40 -5 40 8 0 7 4 -3
10 -26 17 -35 11 -57 -33 -14 -30 -33 -49 -57 -61 -20 -9 -36 -21 -36 -25 0
-4 -22 -34 -50 -65 -27 -31 -50 -62 -50 -68 0 -7 -22 -43 -49 -82 -68 -99
-114 -184 -106 -196 9 -15 35 -12 35 3 0 8 9 22 20 32 11 10 20 24 20 31 0 7
3 14 8 16 4 2 19 21 35 44 15 22 36 50 46 61 10 11 26 33 35 49 50 89 83 139
109 166 10 10 15 23 12 28 -4 6 -1 10 6 10 7 0 9 -9 5 -27 -4 -16 -8 -37 -10
-48 -1 -11 -7 -31 -13 -45 -5 -14 -23 -61 -38 -105 -16 -44 -34 -87 -42 -96
-7 -8 -13 -25 -13 -36 0 -12 -8 -24 -17 -27 -14 -6 -15 -9 -4 -15 9 -6 5 -10
-15 -15 -20 -5 -24 -10 -15 -16 10 -6 8 -10 -8 -15 -13 -4 -20 -9 -18 -11 11
-11 119 47 124 66 3 11 9 18 13 15 8 -5 24 24 21 39 -2 10 37 117 49 131 4 5
13 35 19 66 11 53 44 99 71 99 28 0 17 -208 -15 -270 -15 -29 -70 -80 -86 -80
-19 0 -79 -64 -79 -85 0 -11 -5 -26 -12 -33 -9 -9 -9 -15 1 -24 11 -10 13 -10
7 0 -10 17 23 16 67 -3 43 -18 71 -56 36 -50 -12 2 -32 11 -45 20 -18 11 -29
13 -43 6 -12 -7 -21 -7 -29 1 -13 13 -46 2 -37 -12 3 -5 3 -15 -1 -21 -4 -8
-9 -7 -15 2 -7 11 -9 10 -9 -4 0 -15 7 -17 40 -14 21 2 37 0 34 -5 -3 -4 4 -8
16 -8 l21 0 -21 -27 c-15 -20 -17 -28 -8 -34 16 -10 -35 -23 -63 -16 -27 7
-295 -12 -322 -23 -20 -8 79 -4 126 5 9 2 15 -1 11 -6 -3 -5 3 -8 13 -7 35 4
115 -15 120 -28 3 -8 11 -14 19 -14 8 0 14 -5 14 -11 0 -16 24 -36 38 -31 6 2
12 -3 12 -12 0 -9 4 -16 9 -16 5 0 11 -9 14 -20 3 -12 1 -18 -5 -14 -6 4 -8
-1 -3 -15 4 -12 2 -21 -4 -21 -6 0 -11 -11 -11 -25 0 -14 -4 -25 -10 -25 -5 0
-10 -7 -10 -16 0 -10 -5 -14 -15 -10 -10 4 -19 -2 -24 -17 -11 -27 -77 -108
-83 -101 -3 2 -10 -2 -17 -9 -9 -12 -6 -14 18 -13 16 1 27 4 24 9 -2 4 5 7 16
7 12 0 30 9 41 20 12 12 20 15 21 8 0 -7 5 -4 10 7 7 16 8 12 5 -15 -2 -19 -6
-44 -8 -54 -6 -24 -85 -69 -110 -63 -10 3 -21 1 -24 -4 -3 -5 -11 -9 -17 -9
-7 0 -3 7 8 16 34 26 -7 39 -49 16 -5 -3 -1 -9 10 -13 14 -5 11 -7 -13 -6 -19
0 -30 4 -26 10 4 7 -1 8 -13 3 -10 -5 -43 -8 -71 -7 -47 2 -52 0 -47 -16 4
-11 3 -14 -3 -6 -5 6 -41 12 -88 13 -44 1 -84 2 -90 2 -5 0 -32 -3 -60 -6 -33
-5 -45 -4 -36 2 7 5 10 15 7 21 -5 7 1 11 14 11 15 0 20 -5 17 -13 -4 -10 2
-13 19 -9 13 2 24 8 24 13 0 5 7 9 15 9 8 0 15 5 15 11 0 6 9 1 20 -12 16 -21
19 -21 20 -6 0 10 7 20 15 23 18 7 16 54 -2 54 -7 0 -13 -4 -13 -9 0 -4 -45
-8 -100 -7 -55 1 -100 -2 -100 -5 0 -7 -11 -8 -89 -9 -38 0 -42 -2 -31 -15 7
-9 10 -18 7 -21 -9 -9 -27 6 -27 22 0 8 -4 13 -9 9 -6 -3 -14 3 -20 12 -9 17
-11 17 -39 -4 -20 -15 -41 -21 -66 -19 -24 2 -36 -1 -36 -9 0 -8 8 -11 21 -8
16 4 20 2 17 -8 -5 -13 -12 -15 -66 -18 -13 -1 -21 -5 -18 -10 4 -5 0 -12 -6
-14 -7 -3 -1 -6 14 -6 48 -2 42 -21 -7 -21 -25 0 -44 4 -41 9 4 5 -9 5 -30 1
-23 -5 -47 -4 -63 2 -14 6 -47 10 -73 9 -26 -2 -52 0 -58 4 -6 4 -45 9 -87 11
-42 3 -85 10 -95 15 -44 24 -112 39 -120 26 -4 -6 -8 -9 -10 -7 -24 38 -26 48
-12 54 9 3 20 3 26 0 6 -4 14 -1 18 7 7 10 11 10 24 0 9 -8 16 -10 16 -5 0 12
58 15 65 3 4 -5 11 -7 16 -3 5 3 17 0 25 -7 8 -6 18 -8 22 -4 4 4 2 9 -3 12
-6 2 -9 18 -7 36 3 28 10 36 38 46 19 7 39 9 44 6 6 -4 18 -1 27 7 9 7 14 8
10 2 -4 -7 3 -14 17 -16 17 -3 23 -1 19 8 -3 9 2 11 18 7 17 -5 20 -3 14 8 -8
12 -6 12 9 0 13 -11 20 -11 28 -3 15 15 48 16 48 2 0 -5 16 -10 36 -10 21 0
33 4 29 10 -3 6 -15 10 -26 10 -11 0 -17 5 -14 10 4 6 10 8 15 5 17 -11 89
-15 95 -5 3 5 15 10 25 10 11 0 36 9 56 20 28 16 39 18 50 9 11 -9 17 -9 29 1
8 6 18 9 23 6 6 -3 12 2 15 12 7 28 91 80 186 115 83 31 85 32 48 35 -29 3
-47 -3 -73 -23 -24 -18 -34 -22 -34 -12 0 8 7 20 15 27 16 14 21 45 5 35 -6
-3 -7 1 -4 9 3 9 1 16 -5 16 -6 0 -11 -5 -11 -11 0 -7 -10 -5 -25 5 -14 9 -25
13 -24 9 4 -21 -2 -33 -13 -27 -7 5 -9 2 -5 -9 4 -11 2 -14 -7 -11 -17 6 -41
-22 -26 -31 6 -3 8 -11 5 -16 -8 -11 6 -12 24 0 8 5 10 14 5 22 -6 11 -5 12 7
3 8 -7 23 -14 34 -16 17 -3 15 -6 -12 -21 -18 -10 -33 -14 -33 -11 0 4 -9 -1
-19 -10 -11 -10 -25 -15 -32 -10 -8 4 -10 3 -5 -4 4 -7 6 -12 4 -12 -2 0 -18
-4 -36 -9 -20 -6 -30 -6 -27 0 9 14 -11 11 -23 -4 -7 -8 -26 -11 -51 -9 -38 4
-39 5 -30 29 10 26 4 47 -11 38 -5 -3 -11 -1 -15 5 -3 5 -1 10 4 10 6 0 11 5
11 11 0 5 -10 3 -22 -5 -12 -9 -28 -16 -36 -16 -7 0 -32 -9 -54 -20 -32 -15
-44 -17 -50 -8 -5 9 -8 9 -8 2 0 -14 -48 -25 -55 -14 -8 13 -44 -1 -50 -20 -7
-21 -39 -32 -53 -18 -6 6 -19 7 -29 3 -10 -4 -30 -7 -44 -6 -19 2 -28 -3 -32
-18 -3 -14 -11 -18 -24 -15 -11 3 -26 0 -34 -8 -8 -7 -29 -18 -47 -25 -27 -10
-34 -9 -39 3 -3 8 -9 14 -14 14 -4 0 -6 -7 -3 -15 6 -14 -5 -19 -32 -16 -7 1
-14 -5 -18 -14 -3 -8 -14 -15 -25 -15 -11 0 -23 -4 -26 -10 -9 -15 -27 -12
-20 3 4 6 0 4 -8 -5 -10 -13 -16 -15 -25 -6 -9 9 -12 8 -12 -6 0 -13 -5 -16
-16 -12 -9 3 -30 -2 -48 -13 -17 -10 -49 -21 -70 -24 -22 -4 -43 -12 -47 -19
-6 -9 -10 -8 -15 5 -5 13 -10 15 -19 7 -7 -6 -28 -10 -47 -8 -19 1 -39 -1 -45
-5 -6 -4 -13 -3 -15 2 -1 5 -31 11 -65 13 -34 1 -59 7 -56 11 3 5 -5 6 -17 2
-14 -5 -20 -3 -16 3 3 6 0 13 -6 16 -7 3 1 4 17 3 17 -1 33 -6 38 -12 4 -6 10
-5 16 4 5 8 16 11 30 6 12 -4 21 -2 21 4 0 6 -18 11 -41 11 -22 0 -38 4 -35 8
2 4 -3 9 -12 10 -9 1 -33 4 -52 7 -19 3 -57 7 -85 9 -27 2 -54 4 -59 5 -6 0
-2 7 9 14 23 17 5 31 -27 21 -22 -6 -94 -14 -170 -17 -65 -3 -58 -17 15 -29
24 -4 17 -23 -8 -22 -11 0 -54 4 -95 8 -46 5 -70 4 -62 -2 15 -10 6 -62 -10
-62 -5 0 -6 -9 -3 -20 5 -17 0 -23 -29 -35 -44 -19 -44 -19 -49 3 -4 15 -5 15
-6 1 -1 -18 -31 -35 -31 -19 0 6 -5 10 -11 10 -5 0 -8 -4 -5 -8 6 -10 -25 -27
-69 -38 -37 -9 -33 -8 -70 -23 -16 -7 -48 -17 -71 -23 l-41 -11 -16 -241 c-9
-133 -19 -284 -21 -338 -3 -53 -12 -127 -20 -165 -38 -178 -38 -179 -21 -418
8 -126 20 -322 25 -435 5 -113 14 -288 18 -390 5 -102 9 -216 9 -255 0 -38 1
-140 2 -226 2 -153 3 -157 26 -167 12 -6 31 -28 41 -49 l19 -38 383 -3 382 -2
0 57 c0 32 -9 89 -20 128 -29 102 -71 403 -71 513 0 69 -7 121 -25 190 -13 53
-26 97 -27 99 -2 1 -52 4 -111 5 -85 1 -109 5 -116 17 -7 12 -9 13 -10 2 0
-10 -7 -11 -27 -6 -16 4 -36 7 -46 7 -10 0 -27 8 -38 19 -18 18 -19 28 -13 77
4 33 14 63 23 70 9 8 10 11 3 7 -14 -7 -15 3 -6 69 5 33 10 43 16 34 6 -8 7 0
3 24 -3 20 -1 56 5 80 6 23 13 61 16 83 3 22 9 41 13 43 5 1 6 14 3 29 -3 18
-1 24 7 19 9 -6 10 0 5 20 -5 19 -4 25 5 20 6 -4 11 -18 11 -31 0 -29 16 -41
24 -18 4 9 1 20 -6 24 -7 4 -10 9 -8 11 36 23 48 29 62 34 13 5 16 13 12 30
-4 14 -2 25 5 25 39 5 51 16 51 50 0 32 -15 39 -24 11 -4 -13 -4 -13 -3 3 1
11 13 25 27 32 26 13 21 17 -17 13 -30 -2 -21 25 10 34 21 6 21 7 4 17 -18 10
-18 11 0 25 20 15 19 15 -15 19 -20 2 -23 -1 -19 -21 2 -13 -2 -29 -9 -35 -8
-6 -14 -20 -14 -30 0 -10 -10 -25 -23 -35 -23 -17 -23 -17 33 3 12 5 13 3 3
-8 -7 -7 -13 -21 -13 -32 0 -14 -5 -17 -20 -12 -11 4 -20 2 -20 -4 0 -6 7 -11
15 -11 8 0 15 -4 15 -10 0 -5 -4 -10 -10 -10 -5 0 -7 -7 -4 -15 3 -8 -6 -25
-22 -40 -28 -26 -28 -26 -36 -5 -9 26 -2 43 15 34 8 -5 8 -3 0 7 -16 16 -17
33 -2 24 6 -4 9 2 7 17 -4 36 12 118 24 118 6 0 8 9 5 21 -3 12 -1 33 5 48 14
33 15 36 18 64 1 14 4 17 7 8 4 -10 10 -5 19 15 7 16 13 23 13 15 1 -11 4 -11
17 0 13 10 17 10 24 -1 11 -17 4 -30 -16 -30 -8 0 -14 -9 -14 -21 0 -16 -4
-19 -20 -14 -15 5 -20 1 -24 -17 -7 -40 -5 -69 5 -62 6 3 7 18 4 34 -6 25 -3
28 27 32 32 5 78 -8 78 -22 0 -4 -7 -13 -15 -20 -19 -16 -20 -31 -1 -24 11 4
13 0 10 -18 -5 -23 -5 -23 11 -3 12 15 18 17 24 7 9 -15 -9 -92 -21 -92 -4 0
-8 -7 -8 -15 0 -11 7 -14 25 -9 28 7 35 -10 8 -20 -15 -6 -15 -8 -3 -17 12 -7
12 -11 2 -17 -7 -5 -10 -16 -6 -26 6 -16 8 -16 25 0 11 9 19 22 19 28 0 11 48
56 60 56 8 0 24 -30 22 -41 -1 -4 9 -4 21 -1 18 5 19 7 5 10 -22 4 -23 20 -2
44 14 14 14 21 4 32 -6 9 -10 21 -7 28 2 7 -2 21 -11 31 -10 11 -11 17 -4 17
7 0 12 -4 12 -10 0 -5 9 -10 20 -10 11 0 20 5 20 10 0 6 -7 10 -15 10 -18 0
-20 31 -3 48 9 9 8 13 -5 17 -9 4 -13 13 -11 20 3 8 12 11 20 8 10 -4 14 4 14
31 0 37 15 49 23 19 4 -14 5 -13 6 4 0 12 -3 23 -8 25 -5 2 -3 12 5 22 12 17
17 18 38 7 13 -8 36 -13 51 -13 21 0 26 -4 22 -19 -3 -12 0 -19 9 -19 8 0 14
-4 14 -10 0 -5 -5 -10 -11 -10 -6 0 -9 -7 -6 -15 4 -8 2 -17 -3 -20 -5 -3 -8
-40 -6 -83 4 -99 4 -100 16 -82 6 9 10 10 10 3 0 -6 -6 -18 -13 -25 -7 -7 -16
-21 -20 -30 -3 -10 -12 -16 -19 -13 -7 3 -20 0 -28 -5 -13 -9 -13 -11 0 -20
12 -8 11 -10 -7 -10 -13 0 -23 -5 -23 -11 0 -7 9 -9 23 -5 12 3 30 6 39 6 11
0 15 5 12 14 -6 17 11 30 27 20 8 -4 7 -9 -2 -15 -9 -6 2 -9 30 -9 24 0 41 -3
37 -7 -4 -4 -17 -8 -29 -8 -14 0 -21 -5 -18 -15 2 -8 3 -25 3 -37 0 -13 5 -23
10 -23 6 0 8 -8 5 -19 -3 -15 0 -17 17 -13 21 4 21 4 1 -11 -11 -9 -38 -17
-60 -18 l-40 -2 40 -6 c23 -3 43 -2 47 4 5 6 8 5 8 -2 0 -7 7 -13 15 -13 8 0
15 7 15 15 0 8 6 15 14 15 9 0 12 -7 9 -21 -5 -18 -3 -20 16 -14 21 6 21 5 9
-14 -11 -18 -11 -23 2 -31 8 -5 22 -9 30 -9 10 0 11 2 3 6 -7 2 -13 9 -13 14
0 15 40 10 56 -6 14 -13 13 -15 -5 -15 -34 0 -33 -19 1 -22 18 -2 33 -7 33
-13 1 -20 26 -56 38 -53 7 1 25 -1 41 -6 20 -5 32 -3 37 6 7 10 9 10 9 1 0 -7
6 -13 14 -13 8 0 24 -12 36 -27 16 -20 18 -28 8 -35 -10 -6 -10 -8 0 -9 6 -1
16 -2 21 -3 13 -2 81 -69 81 -81 0 -5 -5 -4 -12 3 -7 7 -22 12 -35 12 -14 0
-23 6 -23 15 0 8 -5 15 -11 15 -7 0 -17 7 -24 17 -12 16 -40 10 -30 -8 4 -5
-25 -7 -68 -6 -60 3 -77 7 -95 25 -12 12 -28 22 -36 22 -8 0 -16 3 -18 8 -4 9
-110 62 -126 62 -6 0 -13 10 -13 23 -1 16 -2 18 -6 4 -5 -20 -19 -22 -27 -5
-5 10 -7 10 -12 1 -3 -7 -18 -9 -41 -6 -23 4 -38 2 -43 -7 -9 -14 -85 -26 -77
-13 2 4 -4 16 -15 25 -15 15 -18 15 -18 3 0 -8 -7 -15 -15 -15 -8 0 -15 7 -15
15 0 8 -9 15 -20 15 -27 0 -57 47 -41 63 7 7 16 12 20 12 4 0 24 14 44 32 28
24 37 40 37 63 0 18 -4 29 -10 25 -5 -3 -15 -3 -21 1 -8 4 -7 9 2 15 10 6 8 9
-8 9 -12 0 -28 3 -37 6 -25 10 -19 -10 7 -21 26 -12 37 -55 13 -55 -8 0 -17 8
-19 17 -3 13 -5 11 -7 -7 -1 -14 -2 -30 -1 -36 2 -17 -56 -67 -63 -55 -11 17
-29 13 -22 -4 4 -10 -1 -15 -14 -15 -11 0 -19 3 -18 8 3 6 -5 12 -17 12 -3 0
1 -11 10 -24 14 -21 14 -24 -1 -37 -14 -12 -14 -14 2 -26 10 -7 12 -13 6 -13
-7 0 -11 -3 -11 -7 3 -20 -2 -24 -16 -13 -8 7 -12 17 -8 23 4 6 0 8 -9 4 -18
-6 -36 28 -43 81 -4 29 -1 32 23 33 21 1 18 3 -13 10 -22 4 -50 10 -62 13 -29
6 -30 -13 -2 -56 12 -18 19 -25 15 -15 -6 20 2 47 16 47 5 0 6 -6 1 -12 -7
-13 -8 -19 -11 -77 -1 -22 -6 -32 -14 -28 -7 2 -22 1 -33 -4 -16 -6 -14 -8 13
-8 25 -1 35 4 41 21 5 14 10 17 15 10 4 -7 4 -12 -1 -12 -4 0 3 -7 15 -16 12
-8 27 -12 32 -9 6 3 10 -1 10 -9 0 -9 8 -16 18 -16 11 0 13 -3 5 -8 -6 -4 -10
-22 -9 -40 2 -25 -1 -31 -12 -27 -10 4 -12 0 -8 -11 3 -8 6 -25 7 -37 l0 -22
16 22 c25 36 103 25 103 -15 0 -6 7 -12 15 -16 28 -10 15 -26 -20 -23 -19 1
-35 4 -35 7 0 3 -9 11 -21 18 -15 10 -24 10 -34 2 -8 -7 -18 -9 -23 -6 -4 3
-16 -9 -26 -25 -10 -17 -20 -28 -23 -25 -3 3 0 12 6 20 7 9 8 17 2 20 -5 3
-12 0 -14 -6 -4 -10 -7 -10 -15 0 -7 11 -10 9 -15 -7 -3 -12 -1 -21 5 -21 5 0
6 -5 3 -10 -3 -6 -1 -10 5 -10 7 0 9 -8 5 -20 -8 -24 1 -26 22 -4 9 8 22 13
31 9 8 -3 20 -1 26 3 6 5 22 5 36 1 l25 -7 -26 -1 c-36 -1 -80 -51 -45 -51 7
0 20 10 28 22 14 21 16 21 48 6 18 -9 39 -14 47 -11 7 3 13 0 13 -7 0 -8 -9
-10 -25 -6 -31 8 -33 -2 -3 -13 15 -5 27 -2 40 11 27 27 22 33 -25 32 -23 -1
-30 1 -15 3 16 2 28 8 28 13 0 4 11 11 25 14 14 4 25 11 25 16 0 6 7 10 15 10
8 0 15 5 15 10 0 6 9 10 20 10 26 0 26 -20 0 -27 -17 -5 -17 -7 -5 -20 8 -8
19 -11 25 -8 5 3 10 -1 10 -9 0 -19 -21 -21 -37 -5 -7 7 -19 9 -29 5 -16 -6
-15 -8 4 -26 23 -22 47 -26 57 -10 8 13 45 13 45 1 0 -6 -5 -13 -10 -16 -6 -4
-8 -11 -5 -16 4 -5 1 -9 -4 -9 -6 0 -11 -6 -11 -14 0 -11 -8 -12 -34 -6 -39 9
-66 -3 -66 -30 0 -11 9 -54 21 -96 15 -54 19 -89 14 -121 -4 -29 -2 -49 6 -59
8 -9 10 -32 6 -67 -7 -58 7 -127 26 -127 9 0 12 -25 12 -89 0 -49 3 -87 7 -85
5 3 8 -13 8 -35 0 -49 18 -54 27 -8 6 25 10 10 19 -71 8 -68 10 -112 3 -129
-5 -13 -9 -33 -9 -44 0 -19 20 -19 1200 -19 l1200 0 0 55 c0 30 -5 74 -12 99
-9 35 -8 67 4 162 13 96 16 206 15 561 -2 346 1 444 11 448 9 3 12 -24 12
-115 0 -120 21 -424 40 -575 11 -90 12 -490 1 -577 l-7 -58 1317 0 c1246 0
1318 1 1323 18 3 9 8 237 10 507 4 457 6 493 24 535 11 26 24 93 31 160 6 63
14 139 17 167 3 29 9 53 13 53 15 0 145 -397 179 -545 18 -79 20 -104 12 -205
-5 -63 -12 -160 -16 -215 -3 -55 -10 -105 -16 -112 -5 -7 -28 -13 -51 -15
l-42 -3 -6 -130 c-6 -153 1 -178 49 -183 20 -2 32 -9 32 -18 0 -12 165 -14
1210 -14 l1210 0 0 999 c0 778 -3 1001 -13 1005 -9 5 -9 7 1 12 17 8 15 31 -3
38 -8 3 -15 10 -15 16 0 5 7 10 15 10 8 0 15 5 15 10 0 6 -11 10 -25 10 -25 0
-33 14 -15 25 15 9 12 35 -4 35 -9 0 -12 7 -9 21 5 19 3 21 -26 14 -20 -4 -31
-3 -31 4 0 6 7 11 15 11 8 0 15 5 15 10 0 6 -8 10 -17 10 -23 0 -49 17 -41 26
4 3 23 -3 43 -15 20 -12 42 -18 48 -14 7 4 2 9 -13 13 -14 3 -29 15 -35 26 -6
11 -16 19 -23 16 -6 -2 -12 1 -12 7 0 6 7 11 15 11 8 0 15 5 15 10 0 6 -11 10
-25 10 -16 0 -25 6 -25 15 0 9 -9 15 -25 15 -20 0 -25 5 -25 25 0 31 -16 33
-25 4 -5 -16 -9 -18 -15 -9 -11 18 -30 3 -30 -26 0 -15 -6 -24 -16 -24 -11 0
-14 -6 -9 -21 6 -19 4 -21 -15 -16 -18 5 -21 2 -17 -13 3 -13 0 -17 -9 -13 -8
3 -14 1 -14 -5 0 -6 6 -13 13 -15 6 -3 -2 -6 -20 -6 -22 -1 -31 -5 -28 -13 6
-16 -53 -52 -79 -49 -11 2 -16 -2 -11 -9 4 -7 19 -9 38 -5 31 6 31 5 12 -10
-17 -14 -18 -17 -5 -25 13 -8 13 -11 1 -19 -7 -5 -10 -14 -7 -20 4 -6 1 -11
-8 -11 -21 0 -30 19 -12 26 20 8 21 24 1 24 -8 0 -15 -5 -15 -11 0 -5 -4 -7
-10 -4 -5 3 -10 11 -10 16 0 6 5 7 10 4 6 -3 10 -1 10 5 0 6 -7 13 -15 16 -8
4 -12 11 -7 18 4 6 7 24 7 40 0 26 3 28 38 31 22 1 42 8 47 15 6 10 9 9 12 -1
3 -8 7 -12 10 -9 3 3 -1 16 -9 30 -10 20 -13 21 -13 6 0 -12 -5 -16 -15 -12
-9 3 -15 0 -15 -10 0 -12 -8 -14 -44 -9 -31 5 -47 3 -56 -7 -12 -12 -18 -12
-47 1 -38 18 -43 31 -10 31 12 0 31 7 42 16 17 13 18 16 5 24 -8 5 -22 10 -31
10 -24 0 -33 31 -14 49 13 14 17 14 24 2 5 -8 7 -19 5 -26 -3 -6 7 -17 21 -23
34 -16 34 -15 28 8 -4 13 0 20 10 20 8 0 18 7 21 16 9 23 -4 64 -20 64 -17 0
-18 17 -1 23 6 2 9 7 6 11 -3 3 -17 0 -32 -7 -19 -8 -25 -17 -21 -29 3 -10 1
-18 -4 -18 -11 0 -19 52 -14 88 2 12 7 20 12 17 5 -3 27 -3 49 1 36 6 39 8 28
25 -7 12 -15 15 -21 9 -12 -12 -66 -13 -66 -1 0 13 27 21 45 15 8 -4 15 -2 15
4 0 14 -35 21 -54 10 -9 -5 -22 -7 -29 -5 -7 2 0 10 16 17 34 16 36 33 2 24
-18 -4 -25 -2 -25 9 0 17 37 30 46 16 8 -14 21 -11 21 5 0 19 -50 28 -84 15
-19 -7 -29 -7 -31 0 -2 6 -8 8 -14 5 -12 -8 -28 14 -28 39 0 19 30 24 31 5 0
-7 5 -3 11 10 14 29 23 28 58 -8 35 -36 52 -39 37 -6 -6 13 -18 21 -27 19 -8
-2 -19 5 -25 18 -13 28 -27 28 -43 -2 -13 -24 -13 -24 -7 5 5 24 3 27 -10 22
-9 -3 -19 -6 -21 -6 -2 0 -4 -7 -4 -15 0 -8 -4 -15 -9 -15 -5 0 -8 11 -7 25 1
26 16 34 104 51 37 7 43 24 9 24 -13 0 -32 6 -42 14 -11 8 -25 12 -32 9 -7 -3
-13 2 -13 12 0 12 -6 15 -22 10 -18 -5 -20 -4 -8 4 8 6 24 11 35 11 18 1 17 2
-5 15 -24 14 -24 14 -3 15 15 0 21 5 17 14 -3 8 -1 17 5 21 16 9 13 35 -4 35
-8 0 -15 5 -15 10 0 16 22 12 35 -6 16 -22 55 -2 55 28 0 17 -3 19 -12 10 -17
-17 -31 -15 -24 3 3 9 0 15 -9 15 -11 0 -15 11 -15 40 0 36 2 40 26 40 19 0
25 5 22 17 -4 22 -38 30 -49 11 -5 -8 -8 -2 -6 18 2 31 10 34 42 15 15 -9 54
-8 49 1 -3 4 -12 8 -19 8 -9 0 -14 9 -13 23 1 12 -2 37 -6 55 -5 22 -4 32 4
32 8 0 11 10 8 24 -4 18 1 27 16 34 20 10 20 11 -6 11 -14 1 -28 -5 -31 -11
-2 -7 -7 -10 -11 -7 -4 4 2 23 14 43 24 44 25 50 4 42 -8 -3 -13 -2 -10 2 3 5
-23 26 -57 48 -34 21 -81 56 -104 76 -23 20 -52 44 -65 52 -12 9 -18 19 -14
23 5 5 11 2 13 -4 5 -15 33 -17 33 -3 0 6 -6 10 -12 11 -7 0 -3 5 10 11 12 6
22 15 22 20 0 5 -9 4 -19 -2 -11 -5 -26 -10 -33 -9 -7 0 -3 4 10 9 28 12 29
30 1 30 -11 0 -17 5 -14 10 3 6 15 10 26 10 10 0 19 5 19 10 0 6 -4 10 -10 10
-5 0 -10 12 -9 28 0 24 1 25 10 7 7 -15 8 -12 4 15 -7 43 -7 50 -3 75 2 12 -2
19 -9 18 -14 -3 -18 23 -4 29 4 2 12 13 15 26 6 16 3 22 -8 22 -19 0 -22 26
-4 32 7 3 13 21 14 41 2 25 -1 34 -9 31 -15 -5 -21 42 -7 51 7 4 7 13 0 25 -7
13 -7 21 0 25 14 8 -6 35 -26 35 -19 0 -11 66 11 90 12 13 14 20 5 20 -6 0
-10 6 -7 14 3 8 -1 20 -9 26 -8 7 -14 19 -14 26 0 8 -5 14 -11 14 -8 0 -8 4 0
13 8 10 7 17 -1 25 -7 7 -8 12 -2 12 5 0 15 -5 22 -12 16 -16 28 -2 14 15 -7
8 -10 16 -7 19 3 2 -9 2 -26 0 -22 -3 -30 -1 -25 7 4 6 16 11 26 11 24 0 34
16 15 24 -11 4 -14 14 -10 35 3 16 1 33 -5 36 -5 3 -10 -2 -11 -12 -1 -12 -3
-10 -9 7 -5 17 -3 29 6 36 20 16 17 32 -6 39 -11 3 -20 11 -20 16 0 6 9 7 23
3 16 -5 12 2 -18 29 -22 20 -46 37 -52 37 -18 0 -16 10 5 26 16 13 16 13 0 14
-20 0 -33 39 -23 69 5 15 2 21 -10 21 -9 0 -15 -6 -14 -12z m-4046 -1838 c-3
-5 -1 -10 5 -10 7 0 10 -7 6 -15 -3 -8 -1 -15 5 -15 5 0 28 -20 51 -45 23 -25
48 -45 55 -45 7 0 13 -4 13 -9 0 -5 10 -13 23 -17 12 -4 28 -15 35 -25 7 -11
22 -19 33 -19 11 0 17 -4 14 -10 -3 -5 0 -10 7 -10 7 0 27 -12 45 -27 41 -34
123 -62 198 -69 33 -3 63 -11 67 -17 6 -9 8 -9 8 -1 0 7 15 14 34 16 19 2 32
0 30 -4 -3 -4 -14 -8 -25 -8 -24 0 -25 -15 -1 -32 20 -14 36 -58 21 -58 -5 0
-9 -5 -9 -11 0 -6 7 -9 14 -6 10 4 13 1 10 -8 -4 -9 2 -13 20 -11 28 3 36 -2
81 -53 22 -25 25 -32 12 -28 -13 5 -17 3 -14 -5 2 -7 11 -13 19 -13 21 0 49
-25 42 -36 -3 -5 -2 -8 3 -7 11 4 83 -55 83 -68 0 -6 10 -16 23 -22 12 -6 16
-11 8 -11 -10 -1 -11 -4 -2 -15 9 -11 6 -15 -18 -18 -26 -4 -39 4 -91 56 -33
33 -60 65 -60 72 0 22 -22 63 -37 68 -8 3 -12 2 -9 -3 3 -5 -1 -12 -10 -15
-26 -10 -35 -7 -32 10 3 16 -1 20 -54 44 -15 7 -36 21 -47 31 -11 11 -27 16
-35 13 -12 -5 -8 -13 19 -39 24 -22 33 -38 29 -49 -5 -12 -10 -14 -19 -6 -7 6
-27 13 -45 15 -42 5 -133 37 -142 50 -5 7 -13 6 -25 -1 -15 -9 -22 -6 -40 19
-13 17 -31 32 -40 33 -30 5 -57 24 -83 59 -14 19 -33 35 -42 35 -10 0 -18 7
-18 15 0 21 -30 19 -32 -2 0 -10 -4 4 -7 32 -5 39 -11 52 -29 61 -44 22 -91
65 -86 79 4 8 -3 15 -18 17 -16 2 -22 9 -20 22 2 11 -1 15 -8 11 -16 -10 -2
44 19 75 10 13 29 28 42 31 13 4 25 7 27 8 2 1 0 -3 -3 -9z m2004 -99 c11 -7
10 -13 -5 -34 -11 -14 -28 -28 -39 -31 -20 -5 -20 -5 0 -21 14 -12 16 -18 8
-21 -7 -3 -13 -11 -13 -18 0 -7 -15 -17 -32 -23 -26 -7 -32 -14 -30 -31 2 -12
-2 -22 -7 -22 -6 0 -11 5 -11 10 0 6 -6 10 -14 10 -8 0 -16 -16 -20 -39 -3
-22 -11 -43 -16 -46 -6 -4 -31 3 -55 14 -44 20 -44 21 -30 48 8 16 18 42 21
60 7 36 36 67 56 60 16 -5 91 33 133 68 34 28 35 28 54 16z m-798 -55 c31 -8
80 -26 108 -39 47 -22 50 -24 37 -43 -8 -11 -17 -36 -21 -56 -5 -24 -14 -38
-26 -41 -10 -3 -22 -13 -26 -23 -4 -10 -16 -29 -27 -42 -21 -23 -22 -27 -25
-57 -2 -21 -21 -19 -21 3 -1 9 -7 2 -15 -17 -10 -22 -20 -31 -30 -27 -10 3
-17 -3 -21 -19 -3 -14 -13 -25 -21 -25 -8 0 -12 4 -8 9 3 5 1 12 -5 16 -9 6
-5 -68 6 -103 3 -10 -1 -10 -17 -1 -24 13 -53 4 -43 -13 5 -8 2 -9 -10 -5 -10
4 -22 7 -27 7 -6 0 -9 6 -8 13 1 6 1 19 0 27 -1 12 -3 12 -10 2 -6 -11 -9 -9
-14 7 -4 15 3 25 29 40 19 11 35 25 35 31 1 5 3 15 4 20 1 6 3 17 4 25 0 8 7
12 15 9 11 -4 17 5 22 30 3 20 10 36 14 36 5 0 6 13 4 30 -4 24 -2 29 10 24
10 -4 16 -1 16 9 0 8 -6 18 -12 20 -7 3 1 6 17 7 25 0 27 2 13 11 -22 12 -68
1 -68 -17 0 -22 -17 -16 -23 8 -4 13 2 32 15 50 15 22 19 39 15 64 -3 20 -2
34 4 34 6 0 8 4 5 8 -7 11 39 6 105 -12z m-4175 -53 c21 -32 45 -64 52 -71 17
-19 16 -33 -17 -154 -19 -71 -25 -108 -17 -108 6 0 4 -5 -4 -10 -13 -9 -13
-11 0 -20 13 -9 13 -11 1 -19 -9 -6 -14 -28 -15 -59 0 -28 -4 -48 -7 -46 -4 2
-13 -11 -20 -29 -7 -17 -15 -36 -17 -41 -3 -5 0 -6 5 -3 5 3 10 -4 10 -15 l2
-21 -14 20 c-13 18 -13 27 1 69 9 27 19 110 24 184 6 88 15 156 28 194 l20 58
-44 60 c-41 56 -56 86 -35 74 4 -3 26 -31 47 -63z m2432 -107 c2 -15 -2 -33
-8 -41 -14 -17 -3 -58 13 -51 7 3 20 9 30 12 9 4 17 10 17 15 0 5 11 9 25 9
26 0 34 -15 13 -24 -9 -3 -7 -10 7 -21 20 -16 20 -16 1 -31 -11 -8 -14 -14 -8
-14 7 0 17 -12 22 -26 6 -14 14 -22 20 -19 5 3 10 2 10 -4 0 -12 -52 -41 -74
-41 -8 0 -22 7 -30 16 -15 14 -16 12 -17 -18 -1 -30 -2 -31 -8 -8 -7 25 -7 25
-13 -5 -4 -17 -5 -51 -2 -75 4 -37 3 -41 -6 -22 -5 13 -8 28 -4 33 3 5 1 9 -4
9 -6 0 -12 19 -15 43 -2 23 -8 53 -12 67 -5 19 -4 22 4 10 7 -9 11 -10 11 -3
0 6 -5 15 -10 18 -6 4 -8 16 -5 28 5 16 4 18 -3 8 -7 -9 -12 -10 -16 -2 -10
15 3 53 15 46 11 -8 22 18 17 41 -3 17 -4 17 -21 0 -17 -18 -18 -17 -11 10 16
70 56 95 62 40z m1335 -35 c26 -7 47 -17 47 -22 0 -7 11 -9 74 -9 33 1 96 -18
96 -28 -1 -25 -24 -37 -77 -39 -70 -2 -93 4 -93 23 0 8 -5 12 -11 8 -7 -4 -9
2 -7 16 2 16 -4 25 -19 31 -16 6 -21 5 -17 -4 3 -8 -4 -13 -16 -13 -11 0 -20
4 -20 8 0 4 -7 5 -15 2 -8 -4 -15 -12 -15 -20 0 -8 -7 -14 -16 -14 -8 0 -13 4
-9 9 3 5 -3 12 -13 15 -11 4 -24 17 -29 29 -11 23 -10 23 41 22 28 0 72 -7 99
-14z m-753 -456 c0 -3 -11 -16 -25 -29 -19 -18 -22 -25 -12 -35 9 -9 6 -11
-13 -9 -20 2 -26 -2 -28 -22 -2 -14 -9 -28 -16 -32 -8 -6 -7 -10 2 -17 10 -6
8 -10 -10 -15 l-23 -6 25 -15 c35 -20 64 -18 85 5 21 23 55 27 55 5 0 -8 -6
-15 -14 -15 -20 0 -41 -30 -38 -54 2 -17 -6 -26 -38 -40 -22 -10 -48 -28 -56
-41 -9 -14 -22 -21 -30 -18 -16 6 -19 33 -4 33 16 0 12 27 -5 34 -11 4 -14 24
-14 86 1 80 12 109 42 110 7 1 23 14 37 30 13 17 32 30 42 30 10 0 18 5 18 10
0 6 5 10 10 10 6 0 10 -2 10 -5z m-2901 -71 c13 8 71 -14 71 -27 0 -18 -45
-67 -62 -67 -12 0 -18 -7 -18 -21 0 -15 5 -19 15 -15 8 3 15 1 15 -4 0 -13
-65 -24 -100 -16 -32 6 -38 -2 -18 -22 6 -6 9 -15 5 -18 -6 -6 -37 19 -37 31
0 4 -7 13 -15 22 -12 12 -19 13 -30 3 -13 -10 -15 -8 -15 14 0 23 3 26 20 21
16 -5 20 -2 20 14 0 32 -38 28 -45 -4 -3 -14 -7 -36 -10 -50 -5 -24 -25 -27
-25 -4 0 6 5 7 10 4 6 -4 11 8 11 29 1 20 3 41 4 46 1 6 3 22 4 38 1 18 4 23
10 14 6 -10 18 -11 49 -3 25 5 42 5 42 0 0 -5 16 -9 35 -9 30 0 35 3 35 23 0
16 3 18 9 8 5 -7 14 -10 20 -7z m3227 -464 c8 0 13 -4 9 -9 -3 -5 -1 -12 5
-16 5 -3 10 -1 10 5 0 6 8 4 18 -6 9 -10 17 -23 17 -30 0 -7 14 -26 31 -41 17
-15 34 -36 37 -47 4 -11 13 -16 22 -12 8 3 14 2 14 -2 -4 -28 3 -52 16 -52 8
0 15 -7 15 -15 0 -8 7 -15 16 -15 13 0 14 -3 5 -13 -8 -10 -2 -21 24 -47 39
-38 42 -48 19 -57 -10 -4 -26 6 -44 26 -16 17 -33 31 -37 31 -4 0 -8 8 -8 16
0 11 -17 22 -48 32 -44 14 -46 16 -25 26 23 12 36 36 19 36 -6 0 -11 -4 -11
-8 0 -4 -18 -8 -40 -9 -22 -1 -40 2 -40 8 0 5 -7 9 -15 9 -8 0 -15 5 -15 11 0
7 9 9 23 5 37 -12 50 -12 54 1 3 7 -7 18 -22 25 -22 10 -28 9 -35 -2 -5 -8
-13 -11 -17 -6 -4 4 3 16 16 27 18 15 21 22 12 32 -6 8 -8 17 -4 20 3 4 -1 7
-11 7 -9 0 -15 -4 -12 -9 9 -13 -3 -39 -20 -45 -11 -4 -14 1 -12 22 2 15 6 29
10 32 4 3 1 18 -7 34 -12 22 -12 32 -3 49 11 19 13 20 16 5 2 -10 10 -18 18
-18z m-26 -255 c-10 -12 -10 -15 2 -15 19 0 50 -34 41 -44 -4 -4 0 -4 10 0 21
8 47 -12 47 -37 0 -17 15 -24 47 -20 15 2 26 -16 17 -30 -5 -8 -8 -8 -14 0 -8
13 -40 4 -40 -11 0 -6 9 -8 20 -5 11 3 20 0 20 -6 0 -7 5 -6 11 3 8 12 9 9 5
-12 -11 -48 25 -106 37 -60 3 10 5 6 6 -11 0 -16 5 -26 10 -22 6 3 14 -3 20
-12 9 -17 10 -17 16 0 4 9 12 17 17 17 7 0 7 -5 0 -13 -17 -21 -3 -52 29 -64
40 -15 46 2 9 23 -16 10 -30 21 -30 24 0 13 13 19 24 13 16 -10 60 -9 67 1 4
5 19 -10 33 -33 24 -38 54 -58 44 -28 -3 6 3 20 12 30 17 17 18 17 34 -7 9
-14 16 -33 16 -42 0 -12 6 -15 24 -10 16 4 26 1 30 -9 4 -12 0 -14 -18 -9 -27
6 -41 -9 -31 -34 5 -14 7 -14 15 -2 8 13 10 13 10 -1 0 -27 -27 -42 -64 -36
-25 4 -36 1 -40 -10 -7 -17 -31 -13 -31 5 0 13 -14 17 -16 5 0 -5 -5 -13 -10
-20 -7 -8 -5 -10 10 -6 12 3 21 1 21 -6 0 -6 -11 -11 -25 -11 -14 0 -25 -5
-25 -10 0 -6 3 -9 8 -9 21 4 24 -3 6 -15 -17 -14 -15 -15 28 -11 26 2 56 6 66
9 11 4 33 -4 56 -19 20 -14 41 -25 46 -25 6 0 10 -7 10 -15 0 -9 -9 -15 -25
-15 -14 0 -25 4 -25 9 0 5 -26 12 -57 15 -32 4 -70 9 -85 12 -20 4 -27 1 -31
-13 -3 -11 -5 -7 -6 11 -1 20 -5 27 -16 23 -8 -4 -17 -2 -20 3 -3 5 3 11 12
13 12 3 8 5 -9 6 -15 0 -32 9 -37 19 -9 15 -10 15 -11 -5 0 -16 -4 -21 -15
-17 -8 4 -15 13 -15 21 0 8 5 11 10 8 6 -3 10 0 10 9 0 8 -6 16 -12 18 -10 4
-8 9 3 21 19 18 30 13 22 -11 -4 -15 -3 -15 6 -2 7 10 11 11 11 3 0 -7 7 -13
15 -13 8 0 15 -9 15 -20 0 -11 5 -20 10 -20 22 0 9 41 -16 50 -14 6 -28 19
-31 30 -3 11 -9 20 -14 20 -5 0 -9 7 -9 15 0 23 15 18 30 -10 7 -14 17 -25 22
-25 16 0 7 18 -29 53 -30 31 -42 36 -76 35 -26 -1 -42 4 -48 14 -5 8 -22 21
-39 28 -21 9 -30 19 -30 35 0 13 -6 26 -12 28 -10 4 -9 8 2 16 10 7 11 11 3
11 -7 0 -13 7 -13 15 0 8 -5 15 -11 15 -7 0 -9 10 -7 25 4 17 1 25 -8 25 -8 0
-14 6 -14 14 0 8 -7 16 -15 20 -8 3 -15 12 -15 21 0 8 -6 15 -12 15 -7 1 -3 6
8 13 l22 12 -23 19 c-17 15 -20 23 -11 32 16 19 31 17 16 -1z m72 -447 c8 27
46 18 50 -11 2 -12 11 -23 21 -23 12 -1 13 -1 2 3 -31 9 -14 18 28 15 56 -6
66 -15 57 -55 -6 -31 -5 -34 32 -52 39 -19 46 -29 28 -40 -5 -3 -10 -1 -10 4
0 6 -7 11 -15 11 -8 0 -15 5 -15 10 0 6 -7 10 -15 10 -8 0 -15 5 -15 11 0 5
-4 8 -9 4 -5 -3 -12 -1 -16 5 -3 5 1 10 9 10 18 0 21 16 6 25 -5 3 -10 1 -10
-5 0 -6 -10 -8 -25 -4 -14 3 -25 4 -25 1 0 -19 15 -37 31 -37 10 0 19 -5 19
-11 0 -5 4 -8 9 -5 5 4 11 3 13 -2 1 -4 17 -18 35 -30 29 -20 33 -21 41 -6 5
10 14 14 21 10 9 -6 9 -11 0 -23 -8 -9 -9 -17 -3 -21 5 -4 18 -24 29 -44 10
-20 23 -34 28 -31 5 3 6 -4 3 -15 -5 -15 -2 -22 14 -27 11 -4 18 -11 15 -16
-4 -5 2 -9 13 -9 10 0 31 -10 45 -22 37 -33 17 -58 -47 -58 -35 0 -46 -4 -46
-16 0 -8 -4 -12 -10 -9 -6 4 -4 15 6 30 14 22 14 23 -3 19 -28 -8 -74 13 -67
29 5 14 -26 30 -56 28 -19 -1 -56 27 -47 36 4 3 14 -2 21 -13 8 -10 17 -16 20
-13 10 9 -48 78 -65 79 -9 0 -22 7 -29 15 -7 9 -19 14 -26 11 -6 -2 -24 9 -38
25 -15 16 -31 27 -35 24 -5 -3 -7 4 -4 16 4 15 0 22 -16 26 -14 3 -21 13 -21
29 0 13 -4 24 -10 24 -5 0 -10 7 -10 16 0 8 5 12 11 9 6 -4 13 3 16 15 6 22 7
22 20 5 12 -18 13 -18 13 3 0 12 -5 22 -10 22 -6 0 -5 8 2 20 12 19 13 19 24
-1 l11 -21 5 20z m8 -294 c22 -15 40 -32 40 -39 0 -7 -12 -25 -26 -41 -19 -20
-23 -29 -14 -32 8 -3 24 7 37 22 19 22 26 25 43 16 15 -8 20 -8 20 2 0 7 9 0
19 -16 11 -16 27 -33 35 -38 20 -11 21 -28 2 -28 -8 0 -23 13 -32 29 -10 17
-21 28 -26 25 -4 -3 -8 -1 -8 5 0 6 -7 8 -15 5 -10 -4 -2 -17 32 -47 25 -23
53 -42 62 -42 23 -1 42 -15 36 -26 -3 -5 1 -6 10 -3 9 4 15 3 13 -2 -4 -14 25
-54 39 -54 6 0 14 -9 18 -19 4 -12 12 -17 24 -14 10 3 22 0 25 -5 4 -6 -2 -8
-14 -5 -11 3 -20 0 -20 -6 0 -6 -10 -16 -22 -21 -19 -7 -19 -9 -5 -9 11 -1 15
-5 11 -13 -4 -7 -3 -8 4 -4 7 4 12 2 12 -4 0 -7 7 -9 16 -6 8 3 13 2 10 -2 -2
-4 9 -14 25 -21 17 -7 26 -17 22 -24 -5 -8 -8 -8 -11 1 -2 7 -16 12 -32 12
-15 0 -33 7 -40 15 -7 8 -19 15 -27 15 -8 0 -12 4 -9 9 3 5 -5 9 -18 9 -28 0
-157 83 -191 124 -13 15 -27 28 -30 28 -10 0 -98 79 -108 95 -4 8 1 28 11 47
10 18 22 45 26 61 3 15 9 27 11 27 3 0 23 -12 45 -26z"/>
<path d="M10132 4694 l-40 -47 23 -53 c13 -29 28 -61 34 -71 9 -16 10 -14 11
11 0 25 3 27 23 22 75 -22 73 -22 80 33 8 68 3 77 -46 88 -38 8 -42 12 -40 36
1 15 0 27 -2 27 -1 0 -21 -21 -43 -46z"/>
<path d="M6290 4713 c-14 -9 -28 -21 -31 -26 -4 -5 -9 -4 -13 2 -5 8 -13 8
-26 1 -11 -6 -23 -9 -27 -9 -19 5 -51 -17 -91 -60 l-43 -46 5 33 c7 44 -16 39
-25 -5 -3 -17 -15 -50 -27 -74 -11 -24 -27 -61 -36 -81 -11 -27 -19 -36 -30
-32 -9 3 -16 2 -17 -2 0 -5 -2 -18 -3 -30 -2 -20 1 -20 108 -16 101 3 113 6
132 27 12 13 25 21 30 17 4 -4 5 -2 2 3 -4 6 5 24 19 40 14 17 22 24 18 16 -6
-9 -4 -12 4 -7 6 4 9 11 7 15 -3 4 19 37 49 72 30 35 55 73 55 83 0 18 -1 18
-18 3 -10 -10 -23 -17 -29 -17 -6 0 -13 -6 -16 -12 -2 -7 -7 -10 -11 -6 -4 3
4 25 19 48 14 23 25 50 23 61 -3 19 -4 19 -28 2z"/>
<path d="M10392 4603 c-14 -149 -15 -169 -4 -159 4 4 12 42 19 84 l12 77 -4
-82 c-4 -94 8 -109 24 -30 l10 52 -3 -57 c-2 -37 2 -59 9 -62 18 -7 40 274 23
285 -15 10 -26 -12 -27 -53 -1 -16 -4 -28 -9 -28 -4 0 -6 19 -4 41 4 38 -6 58
-29 59 -3 0 -11 -57 -17 -127z"/>
<path d="M10576 4663 c-16 -83 -27 -256 -17 -266 15 -15 18 -9 24 62 4 35 9
67 13 70 4 3 4 -29 0 -71 -6 -64 -4 -78 7 -78 17 0 32 102 22 143 -4 14 -2 28
4 31 15 10 14 109 -1 124 -21 21 -46 14 -52 -15z"/>
<path d="M10675 4661 c-3 -6 -3 -16 1 -23 4 -6 3 -8 -3 -5 -6 4 -13 -12 -16
-41 -24 -185 -21 -238 13 -229 10 3 21 0 23 -7 8 -22 16 1 25 74 10 81 9 90
-14 90 -10 0 -14 -13 -14 -47 0 -27 -5 -55 -11 -63 -11 -15 -8 42 8 170 l7 55
6 -39 c6 -47 26 -59 32 -19 7 50 -5 88 -29 91 -11 2 -24 -2 -28 -7z"/>
<path d="M5211 4532 c-22 -66 -41 -125 -41 -133 0 -11 -2 -11 -11 1 -8 12 -9
10 -4 -7 4 -13 2 -23 -4 -23 -6 0 -7 -8 -4 -17 5 -13 2 -15 -11 -10 -11 4 -15
3 -11 -4 4 -5 -1 -26 -10 -45 -9 -19 -17 -43 -18 -53 -1 -12 -6 -17 -17 -13
-12 4 -13 2 -2 -9 16 -17 16 -37 0 -21 -18 18 -33 15 -18 -3 10 -12 10 -19 2
-27 -17 -17 -22 -7 -26 55 -4 46 -2 57 10 57 8 0 12 5 9 10 -4 6 -11 8 -16 4
-6 -3 -7 4 -3 20 4 18 -2 43 -22 84 l-28 57 -12 -85 c-7 -47 -12 -87 -12 -90
1 -3 -1 -12 -5 -20 -3 -8 -8 -28 -12 -45 -13 -64 -18 -80 -27 -86 -6 -4 -11
-18 -11 -33 -1 -14 -5 -26 -8 -26 -4 0 -9 -13 -12 -29 -12 -56 -41 -109 -71
-127 l-31 -18 39 -8 c22 -5 42 -11 44 -13 6 -6 -68 2 -88 9 -8 3 -33 8 -54 11
-22 3 -45 10 -51 15 -9 7 -12 2 -13 -19 0 -17 5 -32 14 -35 23 -9 16 -26 -11
-26 -32 0 -32 -18 -1 -30 23 -8 62 -68 51 -78 -7 -8 -34 18 -41 40 -3 11 -12
17 -19 14 -8 -3 -16 3 -18 12 -4 16 -5 15 -6 0 0 -10 -8 -18 -16 -18 -8 0 -15
8 -15 18 0 13 -2 14 -9 4 -10 -17 -47 -11 -43 7 2 9 -6 11 -27 6 -16 -3 -39
-1 -50 5 -12 6 -21 7 -21 1 0 -5 6 -11 14 -14 9 -4 12 -15 9 -32 -3 -14 -8
-23 -11 -21 -3 3 -11 -2 -18 -12 -7 -9 -14 -12 -14 -7 0 13 -158 17 -165 4
-10 -15 -25 -10 -19 6 4 9 0 15 -10 15 -9 0 -16 -4 -16 -10 0 -5 -5 -10 -11
-10 -6 0 -9 6 -6 14 3 8 -2 16 -14 19 -11 3 -19 0 -19 -6 0 -7 -4 -5 -10 3 -7
12 -12 12 -22 2 -6 -6 -20 -12 -30 -12 -10 0 -18 -5 -18 -11 0 -5 -4 -8 -9 -4
-5 3 -12 1 -16 -5 -3 -5 -23 -10 -43 -10 -33 0 -35 -1 -16 -14 15 -12 17 -17
7 -27 -9 -8 -13 -9 -13 -2 0 7 -12 8 -35 3 -20 -4 -35 -4 -35 1 0 5 9 9 20 9
12 0 17 5 14 13 -2 7 5 22 16 34 11 12 20 27 20 33 0 5 5 10 10 10 6 0 10 6
10 14 0 8 7 17 16 20 8 3 12 10 9 16 -3 5 -1 10 4 10 6 0 11 5 11 10 0 19 -24
10 -79 -32 -31 -24 -62 -49 -69 -55 -7 -7 -27 -13 -43 -13 -22 0 -30 -5 -35
-25 -4 -16 -13 -25 -25 -25 -10 0 -19 -5 -19 -11 0 -8 -5 -8 -15 1 -12 10 -15
10 -15 0 0 -9 -11 -11 -39 -6 -22 3 -42 2 -45 -3 -3 -5 4 -7 16 -4 16 4 20 2
13 -5 -5 -6 -23 -14 -39 -18 -25 -6 -28 -4 -23 10 7 18 -3 22 -19 6 -5 -5 -41
-11 -79 -13 -39 -3 -77 -8 -87 -11 -9 -4 -29 -6 -44 -4 -33 4 -46 28 -15 28
12 0 21 5 21 11 0 7 12 9 31 7 25 -4 33 -1 37 14 2 10 9 18 14 18 6 0 8 -7 5
-15 -7 -17 9 -30 18 -15 4 6 18 9 33 8 18 -2 29 3 37 18 5 11 15 19 22 17 6
-2 17 5 23 16 12 24 8 26 -21 11 -14 -8 -19 -7 -19 3 0 22 -21 37 -40 27 -9
-5 -47 -11 -85 -14 -37 -3 -81 -12 -97 -20 -16 -8 -36 -12 -43 -9 -14 5 -38
-34 -30 -47 2 -3 6 -26 10 -50 4 -25 10 -49 15 -54 5 -5 6 -14 4 -21 -5 -13
10 -36 54 -81 24 -25 41 -31 107 -38 22 -2 78 -9 125 -15 146 -18 239 -19 415
-5 245 19 277 24 295 45 8 10 33 23 55 27 22 5 39 13 38 19 -1 6 26 8 75 5 42
-2 113 -3 157 -3 129 2 207 -23 225 -72 16 -46 12 -74 -12 -91 -19 -14 -19
-16 -5 -22 28 -10 20 -41 -15 -58 -35 -18 -39 -19 -35 -8 1 4 -2 7 -8 7 -5 0
-9 -3 -8 -6 1 -4 -6 -5 -16 -2 -11 3 -29 -6 -45 -22 -35 -35 -33 -41 5 -14 28
20 34 20 68 9 50 -16 81 -6 81 26 0 14 4 33 9 42 4 9 11 56 14 104 3 47 13
115 21 150 8 35 16 74 18 88 2 19 9 25 28 25 14 0 32 4 40 10 29 19 76 45 119
67 39 19 121 107 121 129 0 35 -179 -53 -245 -120 -27 -28 -53 -51 -57 -51 -4
0 -8 18 -8 41 0 28 4 38 12 33 7 -4 8 -3 4 4 -4 6 -2 20 3 30 7 13 7 22 -1 30
-9 9 -8 12 4 12 11 0 18 10 20 27 2 19 10 29 30 34 29 7 75 45 66 54 -3 3 8
20 25 38 16 18 41 50 55 72 14 22 28 42 31 45 3 3 17 22 31 42 14 21 29 38 33
38 5 0 6 4 2 9 -3 5 1 15 8 23 22 23 57 85 57 102 0 9 4 16 10 16 5 0 6 7 3
17 -5 12 -3 14 8 8 8 -4 11 -4 6 0 -4 5 0 19 9 33 9 13 20 36 24 51 4 14 11
34 15 44 4 10 3 17 -4 17 -6 0 -11 -9 -11 -19 0 -11 -4 -21 -8 -23 -7 -2 -59
-83 -107 -166 -18 -32 -58 -86 -89 -123 -17 -19 -38 -46 -46 -58 -8 -13 -20
-29 -25 -35 -6 -6 -26 -33 -44 -59 -18 -27 -34 -47 -36 -45 -8 8 9 58 25 76
11 11 16 22 14 25 -9 8 16 48 26 42 5 -3 7 6 4 20 -2 14 0 25 5 25 6 0 7 7 4
17 -4 11 -3 14 5 9 7 -4 10 -2 7 7 -7 17 31 67 51 67 8 0 14 5 14 12 0 6 10
22 22 35 18 19 19 23 5 23 -22 0 -31 18 -17 35 6 7 10 24 8 37 -1 12 10 63 26
111 42 132 25 115 -23 -21z"/>
<path d="M5400 4328 c-19 -34 -57 -97 -87 -140 -54 -81 -74 -128 -54 -128 6 0
14 7 17 15 4 8 12 15 20 15 8 0 14 6 14 14 0 8 11 23 25 34 14 11 25 25 25 31
0 6 7 11 16 11 8 0 12 5 9 11 -4 6 3 21 16 35 12 13 18 24 13 24 -5 0 -1 7 10
15 10 7 15 18 12 23 -8 14 4 43 15 36 5 -3 9 2 9 10 0 9 -6 16 -14 16 -9 0
-12 7 -9 20 9 36 -4 21 -37 -42z"/>
<path d="M230 3970 c-41 -10 -76 -19 -77 -19 -2 -1 -19 -1 -38 -1 -40 0 -45
-12 -12 -29 l22 -11 -23 6 c-20 5 -23 3 -21 -18 3 -20 -1 -28 -15 -28 -3 0 -1
14 4 31 7 25 6 30 -5 25 -7 -2 -15 0 -17 5 -2 6 -12 7 -22 3 -14 -5 -15 -9 -4
-15 10 -7 9 -9 -5 -9 -16 0 -18 -8 -15 -72 3 -68 5 -73 28 -78 22 -5 23 -7 7
-13 -11 -4 -23 -5 -28 -1 -5 3 -9 -18 -9 -45 0 -28 5 -51 10 -51 6 0 10 -7 10
-15 0 -8 -3 -15 -8 -15 -4 0 -8 -55 -10 -122 -2 -89 1 -124 10 -130 10 -6 10
-8 1 -8 -7 0 -13 -9 -13 -20 0 -11 5 -20 10 -20 6 0 10 -5 10 -11 0 -5 -4 -8
-10 -4 -5 3 -9 -211 -10 -575 0 -460 2 -580 12 -580 9 0 10 -3 2 -8 -14 -9
-14 -45 0 -54 6 -5 7 -8 1 -8 -12 0 -14 -169 -2 -187 4 -6 1 -13 -5 -16 -10
-3 -10 -9 -1 -25 9 -15 9 -23 2 -28 -8 -4 -7 -9 2 -15 12 -8 12 -11 0 -18 -13
-8 -12 -15 4 -50 17 -38 17 -42 2 -59 -22 -24 -21 -32 3 -32 13 0 20 -7 20
-20 0 -11 -5 -20 -11 -20 -5 0 -7 5 -4 10 3 6 -1 10 -9 10 -25 0 -19 -30 7
-31 21 -1 21 -1 -3 -9 -23 -7 -23 -8 -3 -9 22 -1 44 -21 22 -21 -8 0 -8 -4 -2
-12 14 -18 8 -50 -12 -60 -8 -5 -13 -13 -10 -18 3 -5 0 -12 -6 -16 -8 -4 -7
-9 2 -15 10 -6 11 -9 2 -9 -7 0 -13 -9 -13 -20 0 -11 5 -20 10 -20 6 0 10 7
10 15 0 8 5 15 11 15 6 0 8 -7 5 -16 -3 -9 -6 -18 -6 -20 0 -2 -7 -4 -16 -4
-12 0 -14 -10 -12 -52 2 -42 7 -53 20 -53 9 0 20 -4 24 -8 4 -4 -5 -7 -20 -7
l-28 0 3 -103 c3 -79 7 -104 19 -109 13 -6 13 -7 -2 -7 -14 -1 -16 -22 -17
-198 0 -144 3 -199 12 -205 9 -6 9 -8 0 -8 -10 0 -13 -70 -13 -315 l0 -315
295 0 c162 0 295 1 295 3 0 2 9 68 21 148 32 222 37 297 31 536 -3 156 -1 246
8 300 14 86 19 209 24 633 9 624 10 645 40 755 15 55 31 128 36 163 4 35 18
87 30 117 l22 53 -42 42 c-47 47 -105 135 -125 188 -7 20 -25 64 -40 97 -36
78 -81 211 -90 264 -4 22 -11 41 -16 41 -6 0 -8 4 -4 10 6 10 -35 163 -46 168
-4 2 -5 11 -2 21 3 10 0 22 -6 25 -5 4 -8 13 -4 21 6 18 -13 20 -21 3 -3 -7
-3 -2 0 11 4 16 3 21 -6 16 -7 -4 -10 -2 -9 6 3 20 -11 49 -25 49 -6 0 -11 19
-11 47 0 26 -6 48 -12 50 -6 2 -8 13 -5 25 4 15 2 19 -7 13 -10 -5 -12 -2 -8
11 3 11 7 42 9 69 l2 50 -29 -3 c-17 -2 -27 -1 -24 2 3 3 18 7 32 8 15 1 27 7
27 13 0 12 -21 36 -29 34 -4 -1 -40 -9 -81 -19z"/>
<path d="M1220 3848 c39 -140 65 -223 72 -226 5 -2 8 -11 8 -19 0 -13 3 -13
15 -3 8 7 13 16 10 20 -3 5 0 12 6 16 8 5 9 3 4 -6 -5 -8 -3 -11 4 -9 7 3 11
8 9 11 -2 4 6 14 17 22 12 9 15 15 7 16 -8 0 -10 5 -6 13 6 8 3 8 -9 -1 -17
-14 -37 -9 -37 10 0 5 6 8 14 5 7 -3 19 0 25 6 6 6 11 7 11 2 0 -6 5 -3 10 5
10 17 157 21 305 8 44 -3 67 -4 50 -2 -16 3 -55 10 -85 16 -30 5 -95 11 -145
12 -65 1 -111 8 -167 26 l-77 24 -23 58 c-12 32 -26 58 -29 58 -4 0 1 -28 11
-62z"/>
<path d="M1923 3678 c-19 -25 -23 -51 -11 -66 11 -13 10 -14 -7 -8 -37 11
-115 -80 -111 -129 3 -24 25 -66 42 -80 7 -5 12 -19 9 -30 -2 -11 -4 -25 -4
-32 -1 -7 -8 -10 -17 -6 -8 3 -25 -4 -38 -16 -15 -14 -38 -23 -64 -24 -23 0
-39 -3 -37 -5 11 -12 98 -20 119 -12 21 7 23 6 19 -11 -3 -10 -10 -16 -16 -12
-6 3 -7 1 -3 -6 4 -6 2 -19 -6 -28 -12 -15 -11 -15 9 -4 13 6 26 23 29 36 3
14 13 25 21 25 8 0 11 -5 8 -11 -4 -5 -4 -22 0 -36 l6 -26 19 31 c11 18 27 32
35 32 9 0 13 5 10 10 -9 14 47 1 58 -14 6 -7 7 -5 4 6 -3 9 1 19 9 22 25 9 72
7 79 -4 3 -5 17 -10 31 -10 15 0 39 -14 61 -35 41 -39 45 -42 36 -19 -3 9 -1
19 4 23 7 4 8 50 2 139 -6 111 -12 142 -34 190 -26 57 -60 102 -78 102 -5 0
-4 -7 3 -15 7 -8 9 -15 4 -15 -4 0 0 -6 10 -13 19 -14 40 -87 25 -87 -5 0 -9
14 -9 30 0 22 -5 30 -17 29 -11 0 -13 -3 -5 -6 6 -2 12 -14 12 -24 0 -11 -4
-18 -9 -14 -6 3 -13 -16 -16 -42 -9 -65 -15 -83 -26 -83 -6 0 -5 9 2 21 6 12
9 37 6 57 -6 35 -34 75 -47 67 -8 -5 6 80 15 95 13 21 -116 29 -132 8z"/>
<path d="M2660 3579 c-30 -10 -66 -25 -80 -32 -15 -9 -41 -12 -63 -10 -33 5
-42 1 -78 -35 l-41 -40 26 -45 c15 -24 43 -56 64 -70 20 -14 65 -53 100 -86
l62 -62 0 174 c0 198 1 200 81 216 34 7 37 9 14 9 -16 0 -55 -8 -85 -19z"/>
</g>
</svg>
